<?xml version="1.0" encoding="utf-8"?>
<!-- Generator: Adobe Illustrator 26.0.1, SVG Export Plug-In . SVG Version: 6.00 Build 0)  -->
<svg version="1.1" id="Layer_1" xmlns="http://www.w3.org/2000/svg" xmlns:xlink="http://www.w3.org/1999/xlink" x="0px" y="0px"
	 viewBox="0 0 67.9 92.8" style="enable-background:new 0 0 67.9 92.8;" xml:space="preserve">
<style type="text/css">
	.st0{fill:#7B1FA2;}
</style>
<g>
	<path class="st0" d="M2.6,13.1C1.1,13.2,0,14.4,0,15.9l0,0c0,1.5,1.2,2.6,2.7,2.6c0,0,0,0,0.1,0h0.1c0.7,0,1.4-0.3,1.9-0.9
		c0.5-0.5,0.7-1.2,0.7-2C5.4,14.2,4.1,13.1,2.6,13.1z"/>
	<path class="st0" d="M2.7,71.7L2.7,71.7c0.1,0,0.2,0,0.2,0c0.7,0,1.4-0.3,1.9-0.9c0.5-0.5,0.7-1.2,0.7-2c-0.1-1.5-1.3-2.7-2.9-2.6
		C1.1,66.3-0.1,67.5,0,69C0,70.5,1.2,71.7,2.7,71.7z"/>
	<path class="st0" d="M2.6,26.4C1.1,26.5,0,27.7,0,29.2l0,0c0,0.7,0.3,1.4,0.8,1.9s1.2,0.8,1.9,0.8c0,0,0,0,0.1,0h0.1
		c0.7,0,1.4-0.3,1.9-0.9s0.7-1.2,0.7-2C5.4,27.5,4.2,26.3,2.6,26.4z"/>
	<path class="st0" d="M2.7,45.1L2.7,45.1c0.1,0,0.2,0,0.2,0c0.7,0,1.4-0.3,1.9-0.9c0.5-0.5,0.7-1.2,0.7-2c-0.1-1.5-1.3-2.7-2.9-2.6
		C1.1,39.7-0.1,41,0,42.5C0,44,1.2,45.1,2.7,45.1z"/>
	<path class="st0" d="M18.2,79.5c-1.5,0.1-2.7,1.4-2.6,2.9l0,0c0,1.5,1.2,2.6,2.7,2.6c0,0,0,0,0.1,0h0.1c0.7,0,1.4-0.4,1.9-0.9
		s0.7-1.2,0.7-2c0-0.7-0.4-1.4-0.9-1.9C19.7,79.7,19,79.4,18.2,79.5z"/>
	<path class="st0" d="M2.6-0.2C1.1-0.1,0,1.2,0,2.7l0,0c0,0.7,0.3,1.4,0.8,1.9S2,5.3,2.7,5.3c0,0,0,0,0.1,0h0.1
		c0.7,0,1.4-0.3,1.9-0.9c0.5-0.5,0.7-1.2,0.7-2C5.4,1,4.1-0.2,2.6-0.2z"/>
	<path class="st0" d="M0,55.8c0,0.7,0.3,1.4,0.8,1.8c0.5,0.5,1.2,0.8,1.8,0.8c0,0,0,0,0.1,0h0.1c0.7,0,1.4-0.3,1.9-0.9
		s0.7-1.2,0.7-2c0-0.7-0.3-1.4-0.9-1.9c-0.5-0.5-1.2-0.8-2-0.7C1.1,53-0.1,54.3,0,55.8L0,55.8z"/>
	<path class="st0" d="M18.3,58.4L18.3,58.4c0.1,0,0.2,0,0.2,0c0.7,0,1.4-0.3,1.9-0.9c0.5-0.5,0.7-1.2,0.7-2
		c-0.1-1.5-1.3-2.7-2.9-2.6c-1.5,0.1-2.7,1.4-2.6,2.9c0,0,0,0,0,0.1C15.7,57.3,16.9,58.4,18.3,58.4z"/>
	<path class="st0" d="M49.5,5.3C49.5,5.3,49.6,5.3,49.5,5.3c0.1,0,0.2,0,0.2,0c0.7,0,1.4-0.3,1.9-0.9c0.5-0.5,0.7-1.2,0.7-2
		c0-0.7-0.3-1.4-0.9-1.9c-0.5-0.5-1.2-0.7-2-0.7c-1.5,0.1-2.7,1.3-2.6,2.9C46.9,4.2,48.1,5.3,49.5,5.3z"/>
	<path class="st0" d="M33.9,5.3L33.9,5.3c0.1,0,0.2,0,0.2,0c0.7,0,1.4-0.3,1.9-0.9c0.5-0.5,0.7-1.2,0.7-2c0-0.7-0.3-1.4-0.9-1.9
		s-1.2-0.7-2-0.7c-1.5,0.1-2.7,1.3-2.6,2.9l0,0C31.3,4.2,32.5,5.3,33.9,5.3z"/>
	<path class="st0" d="M65.1,18.6C65.2,18.6,65.2,18.6,65.1,18.6c0.1,0,0.2,0,0.2,0c0.7,0,1.4-0.3,1.9-0.9c0.5-0.5,0.7-1.2,0.7-2
		c-0.1-1.5-1.3-2.7-2.9-2.6c-1.5,0.1-2.7,1.4-2.6,2.9C62.5,17.4,63.7,18.6,65.1,18.6z"/>
	<path class="st0" d="M18.2-0.2c-1.5,0.1-2.7,1.4-2.6,2.9l0,0c0.1,1.4,1.3,2.6,2.7,2.6c0,0,0,0,0.1,0h0.1c0.7,0,1.4-0.3,1.9-0.9
		c0.5-0.5,0.7-1.2,0.7-2C21,1,19.7-0.2,18.2-0.2z"/>
	<path class="st0" d="M65.1,5.3C65.2,5.3,65.2,5.3,65.1,5.3c0.1,0,0.2,0,0.2,0c0.7,0,1.4-0.3,1.9-0.9c0.5-0.5,0.7-1.2,0.7-2
		c0-0.7-0.3-1.4-0.9-1.9c-0.5-0.5-1.2-0.7-2-0.7c-1.5,0.1-2.7,1.3-2.6,2.9C62.5,4.2,63.7,5.3,65.1,5.3z"/>
	<path class="st0" d="M2.6,79.5c-1.5,0.1-2.7,1.3-2.6,2.8C0,83.8,1.2,85,2.7,85c0,0,0,0,0.1,0h0.1c0.7,0,1.4-0.3,1.9-0.9
		c0.5-0.5,0.7-1.2,0.7-2C5.4,80.6,4.1,79.4,2.6,79.5z"/>
	<path class="st0" d="M18.3,45.1L18.3,45.1c0.1,0,0.2,0,0.2,0c0.7,0,1.4-0.3,1.9-0.9c0.5-0.5,0.7-1.2,0.7-2
		c-0.1-1.5-1.3-2.7-2.9-2.6c-1.5,0.1-2.7,1.3-2.6,2.9l0,0C15.7,44,16.9,45.1,18.3,45.1z"/>
	<path class="st0" d="M15.6,29.3c0.1,1.4,1.3,2.6,2.7,2.6c0,0,0,0,0.1,0h0.1c0.7,0,1.4-0.3,1.9-0.9s0.7-1.2,0.7-2
		c-0.1-1.5-1.3-2.7-2.9-2.6C16.7,26.5,15.5,27.7,15.6,29.3L15.6,29.3z"/>
	<path class="st0" d="M18.3,18.6L18.3,18.6c0.1,0,0.2,0,0.2,0c0.7,0,1.4-0.3,1.9-0.9c0.5-0.5,0.7-1.2,0.7-2
		c-0.1-1.5-1.3-2.7-2.9-2.6c-1.5,0.1-2.7,1.3-2.6,2.9l0,0C15.7,17.5,16.9,18.6,18.3,18.6z"/>
	<path class="st0" d="M18.3,71.7L18.3,71.7c0.1,0,0.2,0,0.2,0c0.7,0,1.4-0.4,1.9-0.9s0.7-1.2,0.7-2c0-0.7-0.4-1.4-0.9-1.9
		s-1.2-0.7-2-0.7c-1.5,0.1-2.7,1.4-2.6,2.9l0,0C15.7,70.5,16.9,71.7,18.3,71.7z"/>
	<path class="st0" d="M65.1,79.5c-1.5,0.1-2.7,1.3-2.6,2.8c0,1.5,1.2,2.6,2.7,2.6c0,0,0,0,0.1,0h0.1c0.7,0,1.4-0.3,1.9-0.9
		c0.5-0.5,0.7-1.2,0.7-2c0-0.7-0.3-1.4-0.9-1.9C66.5,79.7,65.8,79.4,65.1,79.5z"/>
	<path class="st0" d="M49.5,13.1c-1.5,0.1-2.6,1.3-2.6,2.8l0,0c0,1.5,1.2,2.6,2.7,2.6c0,0,0,0,0.1,0h0.1c0.7,0,1.4-0.3,1.9-0.9
		c0.5-0.5,0.7-1.2,0.7-2c0-0.7-0.3-1.4-0.9-1.9C50.9,13.3,50.2,13.1,49.5,13.1z"/>
	<path class="st0" d="M49.5,39.7c-0.7,0-1.4,0.3-1.9,0.9s-0.7,1.2-0.7,2c0,1.5,1.2,2.6,2.7,2.6c0,0,0,0,0.1,0h0.1
		c0.7,0,1.4-0.3,1.9-0.9c0.5-0.5,0.7-1.2,0.7-2C52.2,40.8,51,39.6,49.5,39.7z"/>
	<path class="st0" d="M49.5,26.4c-1.5,0.1-2.7,1.3-2.6,2.9c0,1.5,1.2,2.6,2.7,2.6c0,0,0,0,0.1,0h0.1c0.7,0,1.4-0.3,1.9-0.9
		c0.5-0.5,0.7-1.2,0.7-2c0-0.7-0.3-1.4-0.9-1.9C50.9,26.6,50.2,26.4,49.5,26.4z"/>
	<path class="st0" d="M65.1,66.2c-1.5,0.1-2.7,1.4-2.6,2.9l0,0c0,1.5,1.2,2.6,2.7,2.6c0,0,0,0,0.1,0h0.1c0.7,0,1.4-0.3,1.9-0.9
		c0.5-0.5,0.7-1.2,0.7-2c0-0.7-0.3-1.4-0.9-1.9C66.5,66.4,65.8,66.2,65.1,66.2z"/>
	<path class="st0" d="M65.1,52.9c-0.7,0-1.4,0.3-1.9,0.9c-0.5,0.5-0.7,1.2-0.7,2l0,0c0.1,1.4,1.3,2.6,2.7,2.6c0,0,0,0,0.1,0h0.1
		c0.7,0,1.4-0.3,1.9-0.9c0.5-0.5,0.7-1.2,0.7-2C67.9,54.1,66.6,52.9,65.1,52.9z"/>
	<path class="st0" d="M65.1,26.4c-1.5,0.1-2.7,1.3-2.6,2.9l0,0c0,0.7,0.3,1.3,0.8,1.8s1.2,0.8,1.8,0.8c0,0,0,0,0.1,0h0.1
		c0.7,0,1.4-0.3,1.9-0.9c0.5-0.5,0.7-1.2,0.7-2c0-0.7-0.3-1.4-0.9-1.9C66.5,26.6,65.8,26.4,65.1,26.4z"/>
	<path class="st0" d="M65.1,39.7c-1.5,0.1-2.7,1.4-2.6,2.9c0,0,0,0,0,0.1c0.1,1.4,1.3,2.6,2.7,2.6c0,0,0,0,0.1,0h0.1
		c0.7,0,1.4-0.3,1.9-0.9c0.5-0.5,0.7-1.2,0.7-2c0-0.7-0.3-1.4-0.9-1.9C66.5,39.9,65.8,39.6,65.1,39.7z"/>
	<path class="st0" d="M33.8,26.4c-1.5,0.1-2.7,1.3-2.6,2.9l0,0c0.1,1.4,1.3,2.6,2.7,2.6c0,0,0,0,0.1,0h0.1c0.7,0,1.4-0.3,1.9-0.9
		c0.5-0.5,0.7-1.2,0.7-2c0-0.7-0.3-1.4-0.9-1.9C35.3,26.6,34.6,26.4,33.8,26.4z"/>
	<path class="st0" d="M33.8,52.9c-1.5,0.1-2.7,1.3-2.6,2.9c0,0,0,0,0,0.1c0.1,1.4,1.3,2.6,2.7,2.6c0,0,0,0,0.1,0h0.1
		c0.7,0,1.4-0.3,1.9-0.9c0.5-0.5,0.8-1.2,0.7-2C36.6,54.1,35.4,52.9,33.8,52.9z"/>
	<path class="st0" d="M33.8,39.7c-1.5,0.1-2.7,1.3-2.6,2.9l0,0c0,0.7,0.3,1.3,0.8,1.8c0.5,0.5,1.2,0.8,1.8,0.8c0,0,0,0,0.1,0H34
		c0.7,0,1.4-0.3,1.9-0.9c0.5-0.5,0.7-1.2,0.7-2C36.6,40.8,35.3,39.6,33.8,39.7z"/>
	<path class="st0" d="M33.8,66.2c-1.5,0.1-2.7,1.3-2.6,2.9l0,0c0.1,1.4,1.3,2.6,2.7,2.6c0,0,0,0,0.1,0h0.1c0.7,0,1.4-0.3,1.9-0.9
		c0.5-0.5,0.7-1.2,0.7-2C36.6,67.3,35.3,66.1,33.8,66.2z"/>
	<path class="st0" d="M49.5,52.9c-1.5,0.1-2.7,1.3-2.6,2.8c0,1.5,1.2,2.6,2.7,2.6l0,0h0.1c0.7,0,1.4-0.3,1.9-0.9
		c0.5-0.5,0.7-1.2,0.7-2C52.2,54.1,51,52.9,49.5,52.9z"/>
	<path class="st0" d="M33.8,79.5c-1.5,0.1-2.7,1.3-2.6,2.9l0,0c0,1.5,1.2,2.6,2.7,2.6c0,0,0,0,0.1,0h0.1c0.7,0,1.4-0.3,1.9-0.9
		c0.5-0.5,0.7-1.2,0.7-2c0-0.7-0.3-1.4-0.9-1.9S34.6,79.5,33.8,79.5z"/>
	<path class="st0" d="M49.5,66.2c-1.5,0.1-2.7,1.3-2.6,2.8c0,1.5,1.2,2.6,2.7,2.6c0,0,0,0,0.1,0h0.1c1.5-0.1,2.7-1.4,2.6-2.9
		C52.2,67.3,50.9,66.1,49.5,66.2z"/>
	<path class="st0" d="M33.8,13.1c-1.5,0.1-2.7,1.3-2.6,2.9l0,0c0.1,1.4,1.3,2.6,2.7,2.6c0,0,0,0,0.1,0h0.1c0.7,0,1.4-0.3,1.9-0.9
		c0.5-0.5,0.7-1.2,0.7-2s-0.3-1.4-0.9-1.9C35.3,13.3,34.6,13.1,33.8,13.1z"/>
	<path class="st0" d="M49.5,79.5c-1.5,0.1-2.7,1.3-2.6,2.8c0,1.5,1.2,2.6,2.7,2.6c0,0,0,0,0.1,0h0.1c0.7,0,1.4-0.3,1.9-0.9
		c0.5-0.5,0.7-1.2,0.7-2c0-0.7-0.3-1.4-0.9-1.9S50.2,79.5,49.5,79.5z"/>
</g>
</svg>
