<svg xmlns="http://www.w3.org/2000/svg" width="114.695" height="60.169" viewBox="0 0 114.695 60.169">
  <g id="Grupo_89349" data-name="Grupo 89349" transform="translate(-1305.305 -3485.276)">
    <path id="Unión_13" data-name="Unión 13" d="M5044.893,9437.238c-.917-1.379-1.539-2.223-2.708-2.223s-1.789.844-2.7,2.223-2.033,3.058-4.315,3.058-3.411-1.693-4.316-3.058-1.538-2.223-2.706-2.223-1.787.844-2.7,2.223-2.033,3.058-4.315,3.058-3.41-1.693-4.315-3.058-1.537-2.223-2.7-2.223-1.787.844-2.7,2.223-2.031,3.058-4.313,3.058-3.41-1.693-4.315-3.058-1.537-2.223-2.7-2.223a1.05,1.05,0,0,0-.476,0c-1.168,0-1.789.844-2.706,2.223s-2.033,3.058-4.318,3.058-3.412-1.693-4.317-3.058-1.538-2.223-2.706-2.223-1.79.844-2.706,2.223-2.033,3.058-4.315,3.058-3.411-1.693-4.316-3.058-1.537-2.223-2.7-2.223-1.789.844-2.706,2.223-2.033,3.058-4.315,3.058-3.409-1.693-4.313-3.058-1.537-2.223-2.7-2.223-1.787.844-2.7,2.223-2.031,3.058-4.315,3.058-3.408-1.693-4.313-3.058-1.537-2.223-2.7-2.223a.882.882,0,1,1,0-1.76c2.282,0,3.409,1.7,4.314,3.058.916,1.377,1.537,2.223,2.7,2.223s1.787-.846,2.7-2.223c.905-1.361,2.031-3.058,4.313-3.058s3.41,1.7,4.313,3.058c.917,1.377,1.537,2.223,2.7,2.223s1.789-.846,2.7-2.223c.905-1.361,2.033-3.058,4.316-3.058s3.409,1.7,4.314,3.058c.916,1.377,1.537,2.223,2.706,2.223s1.789-.846,2.7-2.223c.9-1.361,2.033-3.058,4.316-3.058s3.411,1.7,4.317,3.058c.917,1.377,1.538,2.223,2.706,2.223s1.791-.846,2.708-2.223c.905-1.361,2.035-3.058,4.317-3.058a1.015,1.015,0,0,0,.476,0c2.282,0,3.408,1.7,4.315,3.058.914,1.377,1.535,2.223,2.7,2.223s1.787-.846,2.7-2.223c.905-1.361,2.033-3.058,4.314-3.058s3.408,1.7,4.313,3.058c.916,1.377,1.535,2.223,2.7,2.223s1.787-.846,2.7-2.223c.905-1.361,2.033-3.058,4.315-3.058s3.41,1.7,4.316,3.058c.916,1.377,1.537,2.223,2.706,2.223s1.787-.846,2.7-2.223c.9-1.361,2.031-3.058,4.315-3.058s3.411,1.7,4.316,3.058c.917,1.377,1.539,2.223,2.708,2.223s1.791-.846,2.708-2.223c.906-1.361,2.033-3.058,4.317-3.058a.882.882,0,1,1,0,1.76c-1.17,0-1.791.844-2.708,2.223s-2.033,3.058-4.316,3.058S5045.8,9438.6,5044.893,9437.238Zm0-12.708c-.917-1.38-1.539-2.225-2.708-2.225s-1.789.845-2.7,2.225c-.906,1.361-2.033,3.058-4.315,3.058s-3.411-1.7-4.316-3.058c-.916-1.38-1.538-2.225-2.706-2.225s-1.787.845-2.7,2.225c-.906,1.361-2.033,3.058-4.315,3.058s-3.41-1.7-4.315-3.058c-.916-1.38-1.537-2.225-2.7-2.225s-1.787.845-2.7,2.225c-.905,1.361-2.031,3.058-4.313,3.058s-3.41-1.7-4.315-3.058c-.916-1.38-1.537-2.225-2.7-2.225a1.015,1.015,0,0,0-.476,0c-1.168,0-1.789.845-2.706,2.225-.907,1.361-2.033,3.058-4.318,3.058s-3.412-1.7-4.317-3.058c-.917-1.38-1.538-2.225-2.706-2.225s-1.79.845-2.706,2.225c-.905,1.361-2.033,3.058-4.315,3.058s-3.411-1.7-4.316-3.058c-.916-1.38-1.537-2.225-2.7-2.225s-1.789.845-2.706,2.225c-.906,1.361-2.033,3.058-4.315,3.058s-3.409-1.7-4.313-3.058c-.917-1.38-1.537-2.225-2.7-2.225s-1.787.845-2.7,2.225c-.905,1.361-2.031,3.058-4.315,3.058s-3.408-1.7-4.313-3.058c-.917-1.38-1.537-2.225-2.7-2.225a.882.882,0,1,1,0-1.76c2.282,0,3.409,1.7,4.314,3.058.916,1.378,1.537,2.222,2.7,2.222s1.787-.844,2.7-2.222c.905-1.36,2.031-3.058,4.313-3.058s3.41,1.7,4.313,3.058c.917,1.378,1.537,2.222,2.7,2.222s1.789-.844,2.7-2.222c.905-1.36,2.033-3.058,4.316-3.058s3.409,1.7,4.314,3.058c.916,1.378,1.537,2.222,2.706,2.222s1.789-.844,2.7-2.222c.9-1.36,2.033-3.058,4.316-3.058s3.411,1.7,4.317,3.058c.917,1.378,1.538,2.222,2.706,2.222s1.791-.844,2.708-2.222c.905-1.36,2.035-3.058,4.317-3.058a1.05,1.05,0,0,0,.476,0c2.282,0,3.408,1.7,4.315,3.058.914,1.378,1.535,2.222,2.7,2.222s1.787-.844,2.7-2.222c.905-1.36,2.033-3.058,4.314-3.058s3.408,1.7,4.313,3.058c.916,1.378,1.535,2.222,2.7,2.222s1.787-.844,2.7-2.222c.905-1.36,2.033-3.058,4.315-3.058s3.41,1.7,4.316,3.058c.916,1.378,1.537,2.222,2.706,2.222s1.787-.844,2.7-2.222c.9-1.36,2.031-3.058,4.315-3.058s3.411,1.7,4.316,3.058c.917,1.378,1.539,2.222,2.708,2.222s1.791-.844,2.708-2.222c.906-1.36,2.033-3.058,4.317-3.058a.882.882,0,1,1,0,1.76c-1.17,0-1.791.845-2.708,2.225-.905,1.361-2.033,3.058-4.316,3.058S5045.8,9425.892,5044.893,9424.53Zm0-12.711c-.917-1.379-1.539-2.225-2.708-2.225s-1.789.846-2.7,2.225c-.906,1.362-2.033,3.058-4.315,3.058s-3.411-1.7-4.316-3.058c-.916-1.379-1.538-2.225-2.706-2.225s-1.787.846-2.7,2.225c-.906,1.362-2.033,3.058-4.315,3.058s-3.41-1.7-4.315-3.059c-.916-1.378-1.537-2.224-2.7-2.224s-1.787.846-2.7,2.224-2.031,3.059-4.313,3.059-3.41-1.7-4.315-3.059-1.537-2.224-2.7-2.224a1.05,1.05,0,0,0-.476,0c-1.168,0-1.789.846-2.706,2.225-.907,1.362-2.033,3.058-4.318,3.058s-3.412-1.7-4.317-3.058c-.917-1.379-1.538-2.225-2.706-2.225s-1.79.846-2.706,2.225c-.905,1.362-2.033,3.058-4.315,3.058s-3.411-1.7-4.316-3.058c-.916-1.379-1.537-2.225-2.7-2.225s-1.789.846-2.706,2.225c-.906,1.362-2.033,3.058-4.315,3.058s-3.409-1.7-4.313-3.059c-.917-1.378-1.537-2.224-2.7-2.224s-1.787.846-2.7,2.224-2.031,3.059-4.315,3.059-3.408-1.7-4.313-3.059-1.537-2.224-2.7-2.224a.882.882,0,1,1,0-1.76c2.282,0,3.409,1.7,4.314,3.058.916,1.379,1.537,2.225,2.7,2.225s1.787-.846,2.7-2.225c.905-1.361,2.031-3.058,4.313-3.058s3.41,1.7,4.313,3.058c.917,1.379,1.537,2.225,2.7,2.225s1.789-.846,2.7-2.225c.905-1.361,2.033-3.058,4.316-3.058s3.409,1.7,4.314,3.058c.916,1.379,1.537,2.225,2.706,2.225s1.789-.846,2.7-2.225c.9-1.361,2.033-3.058,4.316-3.058s3.411,1.7,4.317,3.058c.917,1.379,1.538,2.225,2.706,2.225s1.791-.846,2.708-2.225c.905-1.361,2.035-3.058,4.317-3.058a1.015,1.015,0,0,0,.476,0c2.282,0,3.408,1.7,4.315,3.058.914,1.379,1.535,2.225,2.7,2.225s1.787-.846,2.7-2.225c.905-1.361,2.033-3.058,4.314-3.058s3.408,1.7,4.313,3.058c.916,1.379,1.535,2.225,2.7,2.225s1.787-.846,2.7-2.225c.905-1.361,2.033-3.058,4.315-3.058s3.41,1.7,4.316,3.058c.916,1.379,1.537,2.225,2.706,2.225s1.787-.846,2.7-2.225c.9-1.361,2.031-3.058,4.315-3.058s3.411,1.7,4.316,3.058c.917,1.379,1.539,2.225,2.708,2.225s1.791-.846,2.708-2.225c.906-1.361,2.033-3.058,4.317-3.058a.882.882,0,1,1,0,1.76c-1.17,0-1.791.846-2.708,2.225-.905,1.362-2.033,3.058-4.316,3.058S5045.8,9413.182,5044.893,9411.819Z" transform="translate(-3637.181 -5922.559)" fill="#fff" opacity="0.5"/>
    <path id="Trazado_122395" data-name="Trazado 122395" d="M325.19,447.233a2.816,2.816,0,0,0,.827,2l2.859,2.858-2.859,2.858a2.825,2.825,0,1,0,4,4l2.858-2.858,2.858,2.858a2.825,2.825,0,0,0,4-4l-2.858-2.858,2.858-2.858a2.825,2.825,0,0,0,0-3.995h0a2.825,2.825,0,0,0-4,0l-2.858,2.858-2.858-2.858a2.826,2.826,0,0,0-4,0h0a2.816,2.816,0,0,0-.827,2Z" transform="translate(1073.026 3085.676)" fill="#ffce00"/>
  </g>
</svg>
