<svg xmlns="http://www.w3.org/2000/svg" width="35.6" height="85.865" viewBox="0 0 35.6 85.865">
  <g id="Grupo_87372" data-name="Grupo 87372" transform="translate(0 85.865) rotate(-90)">
    <path id="Trazado_113510" data-name="Trazado 113510" d="M116.289,82.255c3.377,0,5.044-2.7,6.384-4.863,1.357-2.193,2.275-3.537,4-3.537s2.646,1.344,4,3.537c1.339,2.167,3.006,4.863,6.382,4.863s5.045-2.7,6.384-4.863c1.355-2.193,2.274-3.537,4-3.537s2.645,1.344,4,3.537c1.339,2.167,3.006,4.863,6.382,4.863s5.043-2.7,6.38-4.865c1.355-2.191,2.272-3.535,4-3.535s2.643,1.344,4,3.535c1.339,2.169,3,4.865,6.381,4.865s5.041-2.7,6.38-4.865c1.355-2.191,2.272-3.535,4-3.535a1.4,1.4,0,1,0,0-2.8c-3.374,0-5.041,2.7-6.381,4.863-1.353,2.193-2.272,3.537-4,3.537s-2.643-1.344-4-3.537c-1.339-2.167-3.006-4.863-6.38-4.863s-5.041,2.7-6.379,4.863c-1.355,2.193-2.272,3.537-4,3.537s-2.645-1.344-4-3.537c-1.339-2.167-3.006-4.863-6.382-4.863s-5.043,2.7-6.384,4.863c-1.354,2.193-2.272,3.537-4,3.537s-2.645-1.344-4-3.537c-1.338-2.167-3.006-4.863-6.382-4.863s-5.046,2.7-6.385,4.863c-1.357,2.193-2.275,3.537-4,3.537s-2.648-1.344-4-3.537c-1.339-2.167-3.008-4.863-6.385-4.863a1.4,1.4,0,0,0,0,2.8c1.729,0,2.648,1.344,4,3.537C111.243,79.559,112.91,82.255,116.289,82.255Z" transform="translate(-104.499 -71.056)" fill="#7b1fa2"/>
    <path id="Trazado_113511" data-name="Trazado 113511" d="M116.289,89.918c3.377,0,5.044-2.7,6.384-4.863,1.357-2.194,2.275-3.538,4-3.538s2.646,1.344,4,3.537c1.339,2.167,3.006,4.865,6.382,4.865s5.045-2.7,6.384-4.865c1.355-2.193,2.274-3.537,4-3.537s2.645,1.344,4,3.537c1.339,2.167,3.006,4.865,6.382,4.865s5.043-2.7,6.38-4.865c1.355-2.193,2.272-3.537,4-3.537s2.643,1.344,4,3.537c1.339,2.167,3,4.865,6.381,4.865s5.041-2.7,6.38-4.865c1.355-2.193,2.272-3.537,4-3.537a1.4,1.4,0,1,0,0-2.8c-3.374,0-5.041,2.7-6.381,4.865-1.353,2.191-2.272,3.535-4,3.535s-2.643-1.344-4-3.535c-1.339-2.167-3.006-4.865-6.38-4.865s-5.041,2.7-6.379,4.865c-1.355,2.191-2.272,3.535-4,3.535s-2.645-1.344-4-3.535c-1.339-2.167-3.006-4.865-6.382-4.865s-5.043,2.7-6.384,4.865c-1.354,2.191-2.272,3.535-4,3.535s-2.645-1.344-4-3.535c-1.338-2.167-3.006-4.865-6.382-4.865s-5.046,2.7-6.385,4.865c-1.357,2.191-2.275,3.535-4,3.535s-2.648-1.344-4-3.535c-1.339-2.167-3.008-4.865-6.385-4.865a1.4,1.4,0,1,0,0,2.8c1.729,0,2.648,1.344,4,3.537C111.243,87.221,112.91,89.918,116.289,89.918Z" transform="translate(-104.499 -66.518)" fill="#7b1fa2"/>
    <path id="Trazado_113512" data-name="Trazado 113512" d="M116.289,97.579c3.377,0,5.044-2.7,6.384-4.863,1.357-2.193,2.275-3.537,4-3.537s2.646,1.344,4,3.537c1.339,2.167,3.006,4.863,6.382,4.863s5.045-2.7,6.384-4.863c1.355-2.193,2.274-3.537,4-3.537s2.645,1.344,4,3.537c1.339,2.167,3.006,4.863,6.382,4.863s5.043-2.7,6.38-4.863c1.355-2.193,2.272-3.537,4-3.537s2.643,1.344,4,3.537c1.339,2.167,3,4.863,6.381,4.863s5.041-2.7,6.38-4.863c1.355-2.193,2.272-3.537,4-3.537a1.4,1.4,0,1,0,0-2.8c-3.374,0-5.041,2.7-6.381,4.865-1.353,2.191-2.272,3.535-4,3.535s-2.643-1.344-4-3.535c-1.339-2.167-3.006-4.865-6.38-4.865s-5.041,2.7-6.379,4.863c-1.355,2.193-2.272,3.537-4,3.537s-2.645-1.344-4-3.537c-1.339-2.166-3.006-4.863-6.382-4.863s-5.043,2.7-6.384,4.863c-1.354,2.193-2.272,3.537-4,3.537s-2.645-1.344-4-3.537c-1.338-2.166-3.006-4.863-6.382-4.863s-5.046,2.7-6.385,4.863c-1.357,2.193-2.275,3.537-4,3.537s-2.648-1.344-4-3.537c-1.339-2.166-3.008-4.863-6.385-4.863a1.4,1.4,0,0,0,0,2.8c1.729,0,2.648,1.344,4,3.537C111.243,94.883,112.91,97.579,116.289,97.579Z" transform="translate(-104.499 -61.979)" fill="#7b1fa2"/>
  </g>
</svg>
