<svg xmlns="http://www.w3.org/2000/svg" width="63" height="63" viewBox="0 0 63 63">
  <g id="Grupo_89305" data-name="Grupo 89305" transform="translate(-414.289 10406)">
    <circle id="Elipse_4750" data-name="Elipse 4750" cx="31.5" cy="31.5" r="31.5" transform="translate(414.289 -10406)" fill="#7b1fa2"/>
    <g id="BfK6s8" transform="translate(-1866.913 -12923.789)">
      <g id="Grupo_89225" data-name="Grupo 89225" transform="translate(2297.735 2524.211)">
        <path id="Trazado_122333" data-name="Trazado 122333" d="M2307.524,2616.372a3.812,3.812,0,0,1-4.238,1.284,3.7,3.7,0,0,1-2.581-3.685q-.023-4.8.005-9.6a.8.8,0,0,0-.642-.926,3.06,3.06,0,0,1-2.267-2.81,31.545,31.545,0,0,1,.217-6.56,9.726,9.726,0,0,1,19.166.778,35.916,35.916,0,0,1,.086,5.638,3.193,3.193,0,0,1-2.335,2.969c-.506.171-.6.413-.6.89q.028,4.8,0,9.6a3.733,3.733,0,0,1-3.292,3.874A3.828,3.828,0,0,1,2307.524,2616.372Zm6.822-14.31a2.008,2.008,0,0,0,1.459-1.97c.015-1.36.019-2.721,0-4.081a8.291,8.291,0,0,0-7.569-8.127,8.1,8.1,0,0,0-8.712,6.355,34.04,34.04,0,0,0-.242,6.184,1.643,1.643,0,0,0,1.419,1.558v-.687q0-3.3,0-6.592c0-.516.129-.928.735-.959.483-.025.747.308.771.935.006.167,0,.334,0,.5v15.7c0,1.026,0,2.051,0,3.077a2.2,2.2,0,0,0,.824,1.819,2.285,2.285,0,0,0,3.735-1.8q.01-4.614,0-9.229a4.7,4.7,0,0,1,.007-.5.748.748,0,0,1,1.495.022c.015.166.005.334.005.5,0,3.055-.008,6.111,0,9.166a2.277,2.277,0,0,0,2.809,2.307,2.307,2.307,0,0,0,1.748-2.493q.005-9.354,0-18.709c0-.25-.055-.557.066-.734.165-.239.482-.526.722-.517s.507.332.676.576c.1.146.039.406.039.615q0,3.17,0,6.341Z" transform="translate(-2297.736 -2567.708)" fill="#fff"/>
        <path id="Trazado_122334" data-name="Trazado 122334" d="M2318.817,2530.166c.712-1.232,1.391-2.409,2.072-3.583a4.271,4.271,0,0,1,7.631-.04q5.029,8.683,10.026,17.383a4.241,4.241,0,0,1-2.756,6.392,5.55,5.55,0,0,1-1.184.1q-4.738.011-9.477,0c-.167,0-.385.056-.491-.026-.253-.2-.6-.445-.632-.706-.027-.218.3-.537.542-.712.157-.113.444-.06.672-.06,3.118,0,6.237-.079,9.351.022a2.864,2.864,0,0,0,2.582-4.472c-3.344-5.647-6.58-11.359-9.863-17.042-1.31-2.268-3.82-2.281-5.129-.03-.7,1.211-1.392,2.431-2.107,3.635a.79.79,0,0,0-.024.86,6.632,6.632,0,0,1-.677,7.429,6.491,6.491,0,0,1-6.974,2.487,6.628,6.628,0,0,1-5.231-5.327,6.912,6.912,0,0,1,11.133-6.758C2318.441,2529.846,2318.6,2529.981,2318.817,2530.166Zm.49,4.879a5.31,5.31,0,1,0-5.368,5.306A5.318,5.318,0,0,0,2319.306,2535.045Z" transform="translate(-2304.209 -2524.211)" fill="#fff"/>
        <path id="Trazado_122335" data-name="Trazado 122335" d="M2365.029,2561.409q0,1.223,0,2.447c0,.49-.211.82-.729.831a.712.712,0,0,1-.767-.8q-.021-2.51,0-5.019a.725.725,0,0,1,.772-.807c.494.012.729.344.726.842C2365.026,2559.736,2365.029,2560.573,2365.029,2561.409Z" transform="translate(-2343.785 -2547.903)" fill="#fff"/>
        <path id="Trazado_122336" data-name="Trazado 122336" d="M2364.232,2584.65a.8.8,0,0,1-.808-.777.783.783,0,0,1,.8-.837.763.763,0,0,1,.788.8A.8.8,0,0,1,2364.232,2584.65Z" transform="translate(-2343.714 -2565.386)" fill="#fff"/>
      </g>
    </g>
  </g>
</svg>
