<svg xmlns="http://www.w3.org/2000/svg" width="63" height="63" viewBox="0 0 63 63">
  <g id="Grupo_89306" data-name="Grupo 89306" transform="translate(-683 10459)">
    <circle id="Elipse_4751" data-name="Elipse 4751" cx="31.5" cy="31.5" r="31.5" transform="translate(683 -10459)" fill="#7b1fa2"/>
    <g id="JwUfWt" transform="translate(-774.377 -13254.009)">
      <g id="Grupo_89226" data-name="Grupo 89226" transform="translate(1469.299 2808.498)">
        <path id="Trazado_122337" data-name="Trazado 122337" d="M1508.456,2853.9c-1.924,0-3.847-.013-5.771-.014h-29.578c0-.375-.006-.7,0-1.031a27.53,27.53,0,0,1,.095-3.166,6.683,6.683,0,0,1,3.377-4.972c.062-.037.12-.08.2-.135-.591-.242-1.16-.449-1.708-.7a9.821,9.821,0,0,1-5.672-10.443,9.978,9.978,0,0,1,8.215-8.441c.811-.133,1.649-.1,2.472-.165a1.053,1.053,0,0,0,.555-.235,5.356,5.356,0,0,0,.932-1.027h-10.961v-1.252h11.067l-1.479-1.34.928-.92,2.921,2.929-1.89,1.817c.729.038,1.325.03,1.91.106a6.291,6.291,0,0,1,5.438,6.137,1.944,1.944,0,0,1-1.018,1.8.562.562,0,0,0-.222.407c-.018,1.185.009,2.371-.015,3.555a14.331,14.331,0,0,1-.318,4.426h2.844v-2.488h1.391c.1-.777.2-1.518.3-2.261.166-1.327.316-2.655.5-3.979a.505.505,0,0,0-.229-.537,8.2,8.2,0,0,1,2.863-14.411,8.191,8.191,0,0,1,10.312,8.418,8.041,8.041,0,0,1-3.219,6,.481.481,0,0,0-.214.51c.163,1.223.309,2.448.467,3.718h.429q2.313,0,4.625,0c.151,0,.3.022.454.034Zm-1.285-1.305v-15.1h-7.56v2.5h-7.578v2.516h-.446c-1.312,0-2.625.008-3.937,0a.616.616,0,0,0-.564.284,5.541,5.541,0,0,1-2.9,2.009c-.1.03-.2.068-.312.108a1.544,1.544,0,0,0,.114.108,6.9,6.9,0,0,1,3,6.028c-.009.506,0,1.013,0,1.541h2.525c0-.215,0-.4,0-.592.009-.354-.093-.777.069-1.04.137-.224.575-.267.885-.379s.368-.309.226-.593-.274-.572-.424-.885l2.513-2.51c.252-.252.477-.646.771-.709s.637.224.959.362a.353.353,0,0,0,.535-.236,7.045,7.045,0,0,0,.238-.684c.057-.225.172-.293.4-.291,1.108.012,2.217,0,3.325,0,.342,0,.758-.1,1,.064.224.146.263.577.384.883.005.012.01.023.014.036a.345.345,0,0,0,.539.216,7.136,7.136,0,0,0,.652-.316.337.337,0,0,1,.486.081c.811.828,1.635,1.644,2.456,2.463.634.634.634.633.257,1.431-.027.058-.058.114-.08.173a.333.333,0,0,0,.208.487c.25.093.5.2.755.267a.3.3,0,0,1,.254.354c-.012.468,0,.936,0,1.422Zm-30.3-18.3c.008-.1.017-.17.018-.245.038-1.633.688-2.266,2.33-2.266q4.11,0,8.219,0c.586,0,.836-.248.823-.8a5.006,5.006,0,0,0-4.019-4.758,14.549,14.549,0,0,0-2.551-.122,22.958,22.958,0,0,0-3.7.124,8.74,8.74,0,0,0-4.29,15.316,8.925,8.925,0,0,0,3.167,1.689V2839.4c-1.662-.326-2.569-1.305-2.5-2.683A2.568,2.568,0,0,1,1476.866,2834.3Zm10.1-1.259h-7.94c-.671,0-.866.2-.868.861,0,.544,0,1.088,0,1.668-.456,0-.862-.012-1.266,0a1.245,1.245,0,0,0-1.255,1.229,1.223,1.223,0,0,0,1.188,1.283c.438.019.878,0,1.351,0v5.529a18.989,18.989,0,0,0,5.765-.07,4.324,4.324,0,0,1-1.988-4.183h5.015Zm10.768-14.516a6.944,6.944,0,1,0,6.923,6.977A6.941,6.941,0,0,0,1497.735,2818.522Zm6.879,34.09c.134-.769.14-.807-.514-1-.418-.123-.38-.491-.544-.753a1.054,1.054,0,0,1-.005-1.294.336.336,0,0,0-.023-.321c-.628-.649-1.27-1.284-1.935-1.949a1.291,1.291,0,0,1-1.539.122c-.406-.2-.717-.386-.789-.851-.034-.223-.18-.264-.385-.26-.611.012-1.223.008-1.835.006-.73,0-.694.015-1.027.661-.108.21-.46.289-.689.443a1.04,1.04,0,0,1-1.293,0,.337.337,0,0,0-.32.029c-.649.627-1.283,1.269-1.912,1.9a1.55,1.55,0,0,1,.024,1.677.409.409,0,0,0-.028.071.6.6,0,0,1-.546.542.486.486,0,0,0-.468.654c.019.1.019.195.031.323.8,0,1.571.008,2.346-.012.082,0,.209-.151.234-.252a4.429,4.429,0,0,1,.977-1.963,4.235,4.235,0,0,1,4.378-1.42,4.293,4.293,0,0,1,3.287,3.321c.032.12.147.309.229.312C1503.051,2852.622,1503.837,2852.612,1504.614,2852.612Zm-28.623-5.832c-1.677,1.69-1.739,3.721-1.6,5.8h4.737c-.487-.482-.9-.933-1.354-1.329a.652.652,0,0,1-.194-.853c.207-.524.364-1.067.542-1.6l-.073-.044-1.652,1.219Zm9.712,5.815c.263-2.524-.48-5.15-1.614-5.742l-.4,3.125-1.643-1.218a8.829,8.829,0,0,0,.472,1.677.6.6,0,0,1-.178.792c-.34.286-.637.624-.952.939-.125.126-.249.254-.418.426Zm10.935-18.948-.631,5.055h2.358v-2.478l.762-.046-.322-2.531Zm4.141,18.947a3.11,3.11,0,0,0-6.1,0Zm-7.3-13.861c.321,0,.612-.016.9,0s.37-.074.4-.355c.1-.947.232-1.891.35-2.836.091-.729.177-1.458.267-2.193l-1.2-.464c-.24,1.9-.476,3.765-.711,5.629C1493.473,2838.567,1493.478,2838.618,1493.478,2838.733Zm-13.425,13.008c.364-.373.708-.712,1.033-1.068a.366.366,0,0,0,.064-.3q-.417-1.307-.867-2.6c-.029-.083-.156-.2-.223-.187a.369.369,0,0,0-.255.2c-.3.853-.58,1.709-.855,2.569a.364.364,0,0,0,.037.3C1479.321,2851.013,1479.676,2851.359,1480.053,2851.741Zm3.273-11.1a2.6,2.6,0,0,0,1.992,2.04.226.226,0,0,0,.174-.025,4.073,4.073,0,0,0,1.283-2.015Zm16.722-7.284c.109.885.212,1.767.334,2.646a.3.3,0,0,0,.221.187c.339.021.68.009,1.065.009l-.41-3.312Zm-22.668,14.315,1.2-.9-.814-1.339c-.231.215-.559.379-.562.55A12.771,12.771,0,0,0,1477.38,2847.67Zm4.135-.9,1.189.893c.058-.456.106-.854.161-1.251.089-.644.041-.716-.617-.864Zm-2.47-1.683c.254.425.442.755.647,1.074.119.186.548.232.666.06.233-.34.433-.7.692-1.134Z" transform="translate(-1469.299 -2814.99)" fill="#fff"/>
        <path id="Trazado_122338" data-name="Trazado 122338" d="M1488.954,2812.036v-1.249h11.009l-1.418-1.363.941-.926,2.86,2.876-2.905,2.914-.846-.854,1.392-1.3-.044-.1Z" transform="translate(-1483.875 -2808.498)" fill="#fff"/>
        <path id="Trazado_122339" data-name="Trazado 122339" d="M1518.423,2885.724h-1.092a7.25,7.25,0,0,0-.756-1.023,1.12,1.12,0,0,0-.708-.215c-.638-.01-1.037.4-1.264,1.234h-1.212a2.355,2.355,0,0,1,.989-1.987,2.4,2.4,0,0,1,2.727-.2A2.442,2.442,0,0,1,1518.423,2885.724Z" transform="translate(-1501.996 -2863.898)" fill="#fff"/>
        <path id="Trazado_122340" data-name="Trazado 122340" d="M1562.991,2838.43a5.678,5.678,0,1,1,5.667-5.7A5.692,5.692,0,0,1,1562.991,2838.43Zm4.4-5.683a4.413,4.413,0,1,0-4.417,4.425A4.429,4.429,0,0,0,1567.388,2832.748Z" transform="translate(-1534.552 -2822.274)" fill="#fff"/>
        <path id="Trazado_122341" data-name="Trazado 122341" d="M1571.99,2843.618a1.886,1.886,0,1,1,1.9,1.882A1.892,1.892,0,0,1,1571.99,2843.618Zm2.517-.016a.639.639,0,0,0-.642-.622.631.631,0,0,0-.614.607.628.628,0,1,0,1.256.014Z" transform="translate(-1545.453 -2833.128)" fill="#fff"/>
      </g>
    </g>
  </g>
</svg>
