<svg xmlns="http://www.w3.org/2000/svg" width="63" height="63" viewBox="0 0 63 63">
  <g id="Grupo_89308" data-name="Grupo 89308" transform="translate(-132 10396)">
    <g id="Grupo_89224" data-name="Grupo 89224" transform="translate(0 41)">
      <path id="Trazado_121311" data-name="Trazado 121311" d="M31.5,0A31.5,31.5,0,1,1,0,31.5,31.5,31.5,0,0,1,31.5,0Z" transform="translate(132 -10437)" fill="#7b1fa2"/>
      <g id="KWQzpT" transform="translate(-2314.776 -13673.588)">
        <g id="Grupo_89219" data-name="Grupo 89219" transform="translate(2458.46 3248.269)">
          <path id="Trazado_122323" data-name="Trazado 122323" d="M2462.345,3287.906c-.2-.187-.4-.379-.273-.692s.4-.323.679-.322q2.825.006,5.65,0h.482a4.706,4.706,0,0,1-.331-2.531,19.167,19.167,0,0,1,.2-4.164,9.6,9.6,0,0,1,5.959-7.1c.266-.112.405-.229.363-.526a3.335,3.335,0,0,1,0-.464c0-.672,0-.672-.659-1.089.046.273.069.506.125.731a.544.544,0,0,1-.223.674.534.534,0,0,1-.669-.108,11.306,11.306,0,0,1-2.285-2.454l-.233-.339a3.207,3.207,0,0,1-3.9,1.6c-1.473-.438-2.064-1.46-2.264-3.739-.125.052-.24.094-.348.146a8.516,8.516,0,0,0-5.114,7.725c-.065,1.3-.015,2.6-.011,3.908a1.19,1.19,0,0,0,1.272,1.291c1.122.011,2.244,0,3.366,0,.448,0,.685.177.685.5s-.253.512-.683.513c-1.122,0-2.245.008-3.367,0a2.182,2.182,0,0,1-2.284-2.292c.008-1.586-.012-3.174.073-4.756a8.492,8.492,0,0,1,1.439-4.155,1.409,1.409,0,0,0,.21-.787c.032-1.185.1-2.369.175-3.553.076-1.235.181-2.469.253-3.7a.734.734,0,0,0-.175-.468,2.243,2.243,0,0,1,.164-3.168.812.812,0,0,0,.226-.519c.025-1.147,0-2.3.031-3.443a6.633,6.633,0,0,1,4.663-5.944,1.868,1.868,0,0,1,1.494.169.5.5,0,0,0,.56.024,2.592,2.592,0,0,1,1.953-.191,7.764,7.764,0,0,1,4.578,3.278.749.749,0,0,1,.158.49c-.034.156-.206.375-.342.393a.746.746,0,0,1-.557-.2c-.285-.295-.491-.664-.766-.968a6.678,6.678,0,0,0-3.367-2.014,1.7,1.7,0,0,0-1.527.329c-.411.315-.55.309-.923-.059a.987.987,0,0,0-1.067-.243,5.579,5.579,0,0,0-3.828,4.8c-.079,1.231-.014,2.471-.014,3.749a3.34,3.34,0,0,0,2.543-1.754c.094-.168.16-.353.255-.52a1.593,1.593,0,0,1,1.442-.881c1.2-.009,2.4-.013,3.6-.027a1.644,1.644,0,0,1,1.592.956c.165.315.372.609.585.953a8.711,8.711,0,0,1,6.378-2.531,7.282,7.282,0,0,1,6.024,3.063.542.542,0,0,0,.108-.1,22.157,22.157,0,0,1,4-4.441c.343-.321.685-.231.893.2.373.777.7,1.578,1.13,2.324a4.066,4.066,0,0,0,2.889,2.19,14.282,14.282,0,0,0,1.646.083c0-.241.011-.428,0-.613a15.891,15.891,0,0,0-.252-2.99,6.322,6.322,0,0,0-5.234-4.683,7,7,0,0,0-6.756,1.931,10.225,10.225,0,0,0-.908,1.151c-.247.333-.509.432-.777.259s-.294-.478-.074-.816a7.82,7.82,0,0,1,6.4-3.707,7.936,7.936,0,0,1,5.727,1.662,7.542,7.542,0,0,1,2.9,5.947c.007.323,0,.645,0,.968a4.957,4.957,0,0,0,.248,1.771,2.38,2.38,0,0,1-1.571,3.109.412.412,0,0,0-.241.2,7.438,7.438,0,0,1-2.248,3.665c.61.39,1.253.742,1.831,1.179a9.631,9.631,0,0,1,4.03,6.777.813.813,0,0,0,.062.177v5.96c-.029.069-.063.135-.088.206a2.057,2.057,0,0,1-1.89,1.537c-1.364.072-2.734.034-4.1.023a.493.493,0,0,1-.49-.635c.087-.3.315-.373.6-.372,1.226,0,2.451.009,3.677,0a1.192,1.192,0,0,0,1.277-1.287c0-1.574.055-3.15-.012-4.72a8.521,8.521,0,0,0-5.045-7.734c-.13-.065-.27-.111-.444-.182,0,.539.007,1.015,0,1.492a3.254,3.254,0,0,1-.787,2.131,3.205,3.205,0,0,1-5.636-1.941c-.016-.366,0-.733,0-1.125a5.306,5.306,0,0,1-.736.309.451.451,0,0,0-.369.408,5.256,5.256,0,0,1-1.856,3.089,1.628,1.628,0,0,0-.706,1.588.621.621,0,0,0,.433.644,9.391,9.391,0,0,1,5.953,7.518,30.094,30.094,0,0,1,.147,4.013,3.9,3.9,0,0,1-.34,2.233h.479q2.941,0,5.882,0c.282,0,.548.01.681.318s-.074.5-.264.7Zm12.685-13.874a8.519,8.519,0,0,0-5.387,7.163,41.116,41.116,0,0,0-.075,4.483,1.188,1.188,0,0,0,1.311,1.215q7.408,0,14.816,0a1.206,1.206,0,0,0,1.32-1.288c.009-1.2.023-2.4,0-3.6a8.565,8.565,0,0,0-2.525-6.012,8.261,8.261,0,0,0-2.941-1.932c-.586,2.092-1.62,3.042-3.273,3.031S2475.582,3276.122,2475.03,3274.032Zm9.607-10.546c0-.63.006-1.235,0-1.841a5.887,5.887,0,0,0-.95-3.22,6.222,6.222,0,0,0-5.951-2.957,7.083,7.083,0,0,0-6.611,4.549,9.53,9.53,0,0,0,1,9.144c.326.514.737.973,1.109,1.458a.29.29,0,0,0,.087-.23,12.91,12.91,0,0,1,1.172-6.583,14.483,14.483,0,0,1,3.66-4.74c.542-.489.823-.426,1.13.227a20.594,20.594,0,0,0,1.229,2.4A3.863,3.863,0,0,0,2484.637,3263.486Zm-1.46,1.054a4.205,4.205,0,0,1-2.914-1.449,21.3,21.3,0,0,1-1.442-2.274,6.935,6.935,0,0,1-.319-.677,12.087,12.087,0,0,0-4.219,8.973.708.708,0,0,0,.147.416,4.934,4.934,0,0,0,7.753-.049C2483.335,3267.986,2483.229,3266.283,2483.177,3264.54Zm5.433-10.341a17.26,17.26,0,0,0-3.432,3.89.887.887,0,0,0-.067.922,8.37,8.37,0,0,1,.542,3.754,3.254,3.254,0,0,0,.231,1.659,1.22,1.22,0,0,1,.114.563.438.438,0,0,0,.323.452,5.214,5.214,0,0,0,5.881-1.268c1.443-1.577,1.407-3.483,1.3-5.417a5.048,5.048,0,0,1-4.062-2.882C2489.142,3255.335,2488.891,3254.768,2488.61,3254.2Zm-17.387,3.546c-.281-.437-.557-.826-.788-1.24a.755.755,0,0,0-.745-.434c-1.134.017-2.268.025-3.4.016a.745.745,0,0,0-.773.5,4.286,4.286,0,0,1-2.458,2.377.35.35,0,0,0-.263.394c.013.67,0,1.34.007,2.01a5.351,5.351,0,0,0,3.333,4.916,5.2,5.2,0,0,0,3.632.156A10.266,10.266,0,0,1,2471.223,3257.745ZM2476.1,3272c0,.719-.026,1.373.006,2.025a2.163,2.163,0,0,0,1.884,2.033,2.105,2.105,0,0,0,2.393-1.6,17.5,17.5,0,0,0,.137-2.47A6.2,6.2,0,0,1,2476.1,3272Zm14.434-5.5a6.472,6.472,0,0,1-4.36-.018c0,.593-.014,1.133,0,1.672a2.184,2.184,0,0,0,2.038,2.1,2.154,2.154,0,0,0,2.309-1.878A17.521,17.521,0,0,0,2490.536,3266.5Zm-20.491.926a6.514,6.514,0,0,1-3.982-.069,2.288,2.288,0,0,0,1.777,2.864,2.094,2.094,0,0,0,2.139-.869A1.47,1.47,0,0,0,2470.045,3267.429Zm-5.719-1.01a6.429,6.429,0,0,1-2.409-3.759c-.02-.088-.114-.159-.173-.238l-.105.032-.433,6.1Zm-2.562-7.124c-.505-.028-.829.312-.875.875a1.089,1.089,0,0,0,.875,1.174Zm32.8,1.373a1.253,1.253,0,0,0,.8-1.285c-.009-.64-.16-.753-.8-.583Zm-10.3,3.9v1.826a1.3,1.3,0,0,0,.731-1.183C2485.026,3264.6,2484.9,3264.5,2484.256,3264.567Z" transform="translate(-2458.473 -3248.269)" fill="#fff"/>
          <path id="Trazado_122324" data-name="Trazado 122324" d="M2458.771,3401.744c-.193-.189-.4-.375-.271-.688s.386-.332.67-.325c.358.008.717.005,1.075,0,.289,0,.569-.009.713.318s-.082.5-.252.7Z" transform="translate(-2458.46 -3362.107)" fill="#fff"/>
          <path id="Trazado_122325" data-name="Trazado 122325" d="M2606.061,3401.731c-.178-.2-.4-.374-.262-.69s.417-.33.707-.323.563.017.843,0a.75.75,0,0,1,.725.32v.7Z" transform="translate(-2568.443 -3362.094)" fill="#fff"/>
          <path id="Trazado_122326" data-name="Trazado 122326" d="M2489.308,3376.028a.566.566,0,0,1-.6.561.588.588,0,0,1-.571-.6.6.6,0,0,1,.609-.566A.581.581,0,0,1,2489.308,3376.028Z" transform="translate(-2480.619 -3343.212)" fill="#fff"/>
          <path id="Trazado_122327" data-name="Trazado 122327" d="M2581.265,3376.01a.569.569,0,0,1-.583.579.588.588,0,0,1-.589-.58.6.6,0,0,1,.59-.585A.583.583,0,0,1,2581.265,3376.01Z" transform="translate(-2549.28 -3343.211)" fill="#fff"/>
          <path id="Trazado_122328" data-name="Trazado 122328" d="M2527.308,3314.23a.686.686,0,1,1-.67-.839A.762.762,0,0,1,2527.308,3314.23Z" transform="translate(-2508.87 -3296.894)" fill="#fff"/>
          <path id="Trazado_122329" data-name="Trazado 122329" d="M2544.761,3314.226a.776.776,0,0,1,.685-.833.864.864,0,1,1-.685.833Z" transform="translate(-2522.899 -3296.896)" fill="#fff"/>
          <path id="Trazado_122330" data-name="Trazado 122330" d="M2565.388,3291.474a.793.793,0,0,1,.7-.864.892.892,0,1,1-.7.864Z" transform="translate(-2538.3 -3279.884)" fill="#fff"/>
          <path id="Trazado_122331" data-name="Trazado 122331" d="M2586.331,3291.475a.809.809,0,0,1-.7.875.893.893,0,0,1-.007-1.742A.8.8,0,0,1,2586.331,3291.475Z" transform="translate(-2552.895 -3279.882)" fill="#fff"/>
          <path id="Trazado_122332" data-name="Trazado 122332" d="M2484.858,3293.354a.751.751,0,0,1-.67.841.853.853,0,0,1-.017-1.663A.742.742,0,0,1,2484.858,3293.354Z" transform="translate(-2477.17 -3281.318)" fill="#fff"/>
        </g>
      </g>
    </g>
  </g>
</svg>
