<svg xmlns="http://www.w3.org/2000/svg" width="63" height="63" viewBox="0 0 63 63">
  <g id="Grupo_89393" data-name="Grupo 89393" transform="translate(-928 -7723)">
    <circle id="Elipse_4713" data-name="Elipse 4713" cx="31.5" cy="31.5" r="31.5" transform="translate(928 7723)" fill="#7b1fa2"/>
    <g id="Grupo_89204" data-name="Grupo 89204" transform="translate(-10 72)">
      <g id="Grupo_89203" data-name="Grupo 89203" transform="translate(954 7664)">
        <path id="Trazado_122285" data-name="Trazado 122285" d="M1296.495,1250.025l-1.2-.6a2.471,2.471,0,0,1-2.312,1.545,2.5,2.5,0,0,1-2.312-1.542l-1.2.61a3.843,3.843,0,0,0,7.025-.011Z" transform="translate(-1277.432 -1233.15)" fill="#fff"/>
        <path id="Trazado_122286" data-name="Trazado 122286" d="M1288.934,1239.672a.671.671,0,1,0-.676.667A.677.677,0,0,0,1288.934,1239.672Z" transform="translate(-1276.113 -1225.827)" fill="#fff"/>
        <path id="Trazado_122287" data-name="Trazado 122287" d="M1310.931,1240.338a.671.671,0,1,0-.682-.66A.679.679,0,0,0,1310.931,1240.338Z" transform="translate(-1292.025 -1225.827)" fill="#fff"/>
        <path id="Trazado_122288" data-name="Trazado 122288" d="M1278.408,1224.674a7.626,7.626,0,0,0-.6-.909h0q-.241-.289-.5-.561c-.036.032-.187-.183-.276-.276-.112-.116-.227-.225-.343-.336a11.906,11.906,0,0,0-3.125-2.06,10.186,10.186,0,0,0-1.034-.375,10.53,10.53,0,0,0-1.909-.509c-.611-.142-1.166-.295-1.73-.4-.347-.062-.463-.231-.483-.593a3.821,3.821,0,0,0-.187-.882c-.086-.282.016-.411.251-.561a7.352,7.352,0,0,0,3.272-4.526c.034-.131.077-.26.114-.381.07-.008.112-.018.154-.018a3.366,3.366,0,0,0,3.02-4.843.591.591,0,0,1-.042-.36c.232-.874.47-1.748.712-2.634a6.389,6.389,0,0,0,.106-2.9c-.075-.384-.142-.71-.168-.781a3.22,3.22,0,0,0-.664-1.1,6.175,6.175,0,0,0-.685-.654,1.863,1.863,0,0,0-.721-.247,2.406,2.406,0,0,1-1.719-1.239l-.028-.055a7.9,7.9,0,0,0-9.03-2.136l-1.612.57v-.049l-1.477.539a.209.209,0,0,1-.078.061c-.78.3-1.572.576-2.4.87,0,0-2.775,1.607-2.775,1.565a2.951,2.951,0,0,0-1.252,1.924,36.939,36.939,0,0,0,.285,4.138.508.508,0,0,1,.128.267c.133.593.333,1.17.466,1.763a1.029,1.029,0,0,1-.05.618,3.352,3.352,0,0,0,2.493,4.612c.245.046.495.067.74.1a7.43,7.43,0,0,0,3.333,4.87.608.608,0,0,1,.258.684,5.01,5.01,0,0,0-.176.913c-.032.287-.172.392-.445.452-1.027.226-2.052.465-3.071.725a10.827,10.827,0,0,0-8.082,11.856h31.018c-.043-.95-.021-1.881-.145-2.792s-.394-1.79-.6-2.683A12.792,12.792,0,0,0,1278.408,1224.674Zm-10.118-4.186c.968.222,1.934.456,2.992.708l-1.778,2.586-3.607-2.062c.715-.429,1.367-.829,2.03-1.21A.553.553,0,0,1,1268.29,1220.488Zm.444,4.41-1.6,2.323c-.832-1.157-.223-2.059.422-2.994Zm-3.963-4.09a.487.487,0,0,1-.409.008c-.754-.431-1.5-.88-2.234-1.338a.362.362,0,0,1-.141-.292c.058-.385.15-.765.241-1.2a7.344,7.344,0,0,0,4.66-.01c.093.444.189.837.248,1.235a.372.372,0,0,1-.166.282C1266.244,1219.942,1265.513,1220.383,1264.772,1220.807Zm7.229-9.884v-4.01a2.005,2.005,0,1,1,0,4.01Zm-14.883,0a2,2,0,0,1,0-4.01Zm-.182-5.348a7.943,7.943,0,0,0-1.734.432c-.238-.966-.563-1.973-.724-3a3.873,3.873,0,0,1,2.456-4.1c2.332-.886,4.677-1.744,7.048-2.518a6.529,6.529,0,0,1,7.008,2.176c.307.383.584.792.906,1.162a.749.749,0,0,0,.474.246,2.248,2.248,0,0,1,2.3,2.457,13.186,13.186,0,0,1-.752,3.589l-1.909-.569c-.026-.278-.033-.641-.1-1a3.549,3.549,0,0,0-3.491-2.95,9.615,9.615,0,0,0-5.046,1.392c-1.112.652-2.218,1.322-3.367,1.9A6.954,6.954,0,0,1,1256.935,1205.576Zm1.654,6.194a48.205,48.205,0,0,1-.031-5.031,15.772,15.772,0,0,0,4.913-2.333,8.739,8.739,0,0,1,4.855-1.558,2.228,2.228,0,0,1,2.3,2.275c.009,1.965.018,3.931,0,5.9a6.1,6.1,0,0,1-5.665,5.984A5.983,5.983,0,0,1,1258.589,1211.77Zm2.328,8.705a.545.545,0,0,1,.352.077c.629.366,1.251.745,1.953,1.167l-3.609,2.063-1.777-2.589C1258.909,1220.942,1259.912,1220.7,1260.918,1220.475Zm1.435,5.817c-.082.306-.186.607-.312,1.012l-1.653-2.4,1.209-.7c.287.534.581,1.039.825,1.568C1262.483,1225.907,1262.4,1226.122,1262.352,1226.292Zm-11.965,4.184a9.409,9.409,0,0,1,3.177-7.113,9.218,9.218,0,0,1,2.627-1.648c.2-.084.317-.076.45.119q2.9,4.239,5.82,8.469a1.714,1.714,0,0,1,.087.173Zm15.632-1.75a5.672,5.672,0,0,1-.927,1.476c-.143.231-.312.365-.576.292a.845.845,0,0,1-.432-.237,14.048,14.048,0,0,1-.879-1.279.771.771,0,0,1-.078-.528c.123-.516.31-1.017.436-1.532.085-.35.232-.545.622-.468a2,2,0,0,0,.377,0c.848,0,.851,0,1.084.794C1265.791,1227.744,1266.119,1228.284,1266.019,1228.727Zm-.451-3.756c-.038.067-.151.1-.234.132a.366.366,0,0,1-.125,0c-1.7.039-1.7.039-2.417-1.581.53-.3,1.059-.617,1.6-.909a.422.422,0,0,1,.343,0c.53.285,1.048.591,1.614.915C1266.085,1224.024,1265.834,1224.5,1265.568,1224.971Zm.99,5.508c.086-.141.144-.247.213-.346q2.828-4.111,5.659-8.221c.109-.157.175-.33.454-.217a9.37,9.37,0,0,1,5.822,8.784Z" transform="translate(-1249.03 -1194.758)" fill="#fff"/>
      </g>
    </g>
  </g>
</svg>
