<svg xmlns="http://www.w3.org/2000/svg" width="63" height="63" viewBox="0 0 63 63">
  <g id="Grupo_89392" data-name="Grupo 89392" transform="translate(-1200 -7723.107)">
    <circle id="Elipse_4714" data-name="Elipse 4714" cx="31.5" cy="31.5" r="31.5" transform="translate(1200 7723.107)" fill="#7b1fa2"/>
    <g id="Grupo_89205" data-name="Grupo 89205" transform="translate(327.95 6552.585)">
      <path id="Trazado_122289" data-name="Trazado 122289" d="M919.487,1201.5h-4.2c-.1,1.776.1,3.536-.124,5.3h4.864v9.573H889a1.864,1.864,0,0,1-1.911-1.878c0-4.885-.02-9.769.008-14.653a4.607,4.607,0,0,1,2.407-4.1c.122-.074.25-.138.414-.228a3.22,3.22,0,0,1-1.219-2.847,3.093,3.093,0,0,1,.991-2.009,3.172,3.172,0,0,1,4.085-.234c1.367,1.02,1.63,2.6.711,4.423.211-.083.394-.152.573-.227,1.551-.646,3.1-1.3,4.657-1.932a6.367,6.367,0,0,1,1.056-.235.875.875,0,0,0,.219-.046c1.3-.668,2.588-1.347,3.889-2.007a14.015,14.015,0,0,1,3.465-1.424,3.218,3.218,0,0,1-1.035-2.727,3.112,3.112,0,0,1,1.114-2.086,3.19,3.19,0,0,1,4.219.094,3.225,3.225,0,0,1,.1,4.613c.085.033.159.068.237.093a4.782,4.782,0,0,1,3.345,4.551c.006.518,0,1.037,0,1.582h3.163Zm-.511,6.381c-.08-.006-.133-.012-.186-.012q-10.066,0-20.132.005a.581.581,0,0,0-.348.138c-.392.342-.749.728-1.159,1.045a1.28,1.28,0,0,0-.512,1.16,1.848,1.848,0,0,1-2.4,1.827.5.5,0,0,0-.4.085q-1.492,1.346-2.957,2.722a2.136,2.136,0,0,0-.277.435h28.366Zm-25.513-5.33h.428a2.66,2.66,0,0,1,2.761,2.764c0,.808,0,1.617,0,2.425,0,.091.013.182.024.319.406-.374.761-.725,1.143-1.041a.9.9,0,0,1,.519-.205c2.381-.013,4.762-.009,7.143-.009h.33a7.127,7.127,0,0,1-.116-.886q-.014-3.139,0-6.279a2.578,2.578,0,0,1,1.482-2.41c.47-.246.943-.489,1.425-.71a.414.414,0,0,0,.286-.448c-.019-.631-.006-1.262-.006-1.894v-1.652c-.143.065-.243.107-.339.156q-2.611,1.306-5.221,2.614a2.337,2.337,0,0,1-1.3.339.355.355,0,0,0-.184.048c-.58.3-1.15.61-1.738.889-2.118,1.005-4.242,2-6.359,3-.115.055-.265.2-.268.3C893.453,1200.752,893.463,1201.627,893.463,1202.552Zm6.813-8.944c-.03.012-.132.049-.231.09-1.286.535-2.6,1.021-3.851,1.62a8.884,8.884,0,0,1-4.25.878,3.652,3.652,0,0,0-3.8,3.787c-.005,1.351,0,2.7,0,4.053a1.6,1.6,0,0,0,1.7,1.706c.986,0,1.971,0,2.957,0a1.075,1.075,0,0,1,1.188,1.2q0,1.612,0,3.223a.842.842,0,0,0,.32.729.74.74,0,0,0,.813.088.8.8,0,0,0,.464-.78c0-1.628,0-3.256,0-4.884a1.6,1.6,0,0,0-1.709-1.7c-.484,0-.967,0-1.48,0v-.326c0-1.318.005-2.636-.005-3.953a.414.414,0,0,1,.281-.447q3.894-1.815,7.776-3.652c.127-.06.252-.125.3-.147Zm9.64-2.2a.371.371,0,0,1,.025.08c0,1.783.007,3.565,0,5.348a.443.443,0,0,1-.221.3c-.655.345-1.32.672-1.985,1a1.633,1.633,0,0,0-.976,1.6c.007,1.1,0,2.192,0,3.289,0,.974,0,1.949,0,2.923a.8.8,0,1,0,1.591-.01c0-1.462,0-2.923,0-4.385a1.111,1.111,0,0,1,.963-1.263c.563-.153,1.125-.309,1.712-.47V1195.1h2.086a3.866,3.866,0,0,0-.819-3.27l.707-.8a4.109,4.109,0,0,1,1.193,2.818c.021.93,0,1.86.008,2.79a.533.533,0,1,0,1.059.011c0-1.1.02-2.193-.007-3.288a3.622,3.622,0,0,0-2.758-3.42,8.29,8.29,0,0,0-4.46.225,56.558,56.558,0,0,0-6.248,2.984.7.7,0,0,0-.309.867.755.755,0,0,0,1.147.43c1.8-.9,3.614-1.773,5.394-2.711A3.2,3.2,0,0,1,909.915,1191.408Zm2.174,4.784v4.219h6.337v-4.215h-2.1c0,.2.006.387,0,.572a1.593,1.593,0,0,1-3.185-.013c-.006-.184,0-.368,0-.562Zm-20.218-1.084a2.126,2.126,0,1,0-2.129-2.131A2.134,2.134,0,0,0,891.871,1195.108Zm20.731-8.49a2.126,2.126,0,1,0-2.163,2.109A2.13,2.13,0,0,0,912.6,1186.618Zm-24.456,19.747v.143q0,3.935,0,7.871a1.72,1.72,0,0,0,.008.232.794.794,0,0,0,1.576.009,2.068,2.068,0,0,0,.01-.3q0-3.587,0-7.174v-.247Zm2.667,7.1c.8-.736,1.549-1.421,2.288-2.116.048-.045.047-.17.032-.25a6.919,6.919,0,0,1-.193-.963c-.029-.773-.009-1.549-.009-2.323v-.984h-2.118Zm18.6-12.1v.97c0,1.172.008,2.343-.005,3.515a8.556,8.556,0,0,1-.106.928h2.331c-.032-.415-.085-.807-.088-1.2-.011-1.238,0-2.476,0-3.714v-.361l-.518-.025-.032-.545Zm3.195.136c0,1.547-.009,3.061.006,4.576a.769.769,0,0,0,.706.721.789.789,0,0,0,.836-.566,1.034,1.034,0,0,0,.04-.293q0-2.126,0-4.251a1.023,1.023,0,0,0-.034-.186Z" transform="translate(0)" fill="#fff"/>
      <path id="Trazado_122290" data-name="Trazado 122290" d="M991.178,1304.648h-1.016v-1.034h1.016Z" transform="translate(-77.539 -90.411)" fill="#fff"/>
      <path id="Trazado_122291" data-name="Trazado 122291" d="M999.785,1303.654v1.01h-1.034v-1.01Z" transform="translate(-83.999 -90.441)" fill="#fff"/>
      <path id="Trazado_122292" data-name="Trazado 122292" d="M1008.354,1304.667h-1.01v-1.034h1.01Z" transform="translate(-90.463 -90.425)" fill="#fff"/>
    </g>
  </g>
</svg>
