<svg xmlns="http://www.w3.org/2000/svg" width="114.959" height="91.902" viewBox="0 0 114.959 91.902">
  <g id="Grupo_89328" data-name="Grupo 89328" transform="translate(-221.076 -3021)">
    <g id="Grupo_78348" data-name="Grupo 78348" transform="translate(221.076 3021)">
      <path id="Trazado_113319" data-name="Trazado 113319" d="M1572.434,1094v-8.714h-8.783v-6.015h8.783v-8.714h5.855v8.714h8.806v6.015h-8.806V1094Z" transform="translate(-1563.651 -1070.555)" fill="#ffce00"/>
    </g>
    <g id="Grupo_89213" data-name="Grupo 89213" transform="translate(0 -35.155)">
      <g id="upfbXb" transform="translate(-2239.538 1151.863)">
        <g id="Grupo_89208" data-name="Grupo 89208" transform="translate(2483.678 1904.292)">
          <path id="Trazado_122296" data-name="Trazado 122296" d="M2483.678,1978.606a47.707,47.707,0,0,1,1.114-5.6c3.693-11.471,11.485-18.3,23.412-20.258,1.9-.312,3.858-.295,5.819-.432.237-.686,0-1.13-.63-1.6a15.794,15.794,0,0,1-6.727-12.853c-.071-2.6-.012-5.194-.012-7.8-.734-.176-1.4-.316-2.058-.5-.718-.2-1.333-.674-1.321-1.414a49.4,49.4,0,0,1,.383-8.205,10.842,10.842,0,0,1,9.085-8.319,1.649,1.649,0,0,0,1.069-.6,13.224,13.224,0,0,1,14.453-6.44,17.871,17.871,0,0,1,14.769,17.842c.011,1.794.006,3.589,0,5.383-.006,1.72-.619,2.339-2.31,2.347-.561,0-1.122,0-1.9,0V1941.3h1.24c3.14,0,6.28-.014,9.421.007a1.8,1.8,0,1,1,.082,3.585c-1.705-.011-3.41,0-5.114,0q-10.049,0-20.1,0c-4.152,0-6.65,2.484-6.653,6.635q-.012,12.92,0,25.84c0,4.151,2.5,6.624,6.654,6.625h41c4.094,0,6.617-2.508,6.618-6.578q0-13.01,0-26.019a6.094,6.094,0,0,0-5.985-6.5,1.822,1.822,0,0,1-1.881-1.855,1.871,1.871,0,0,1,2.109-1.722,9.667,9.667,0,0,1,9.34,9.778q.041,11.529,0,23.058a40.274,40.274,0,0,1-.181,5.368,9.5,9.5,0,0,1-9.011,8.037c-1.522.055-3.047.009-4.394.009l-2.444,5.009c1.1.154,2.743-.385,3.182,1.5.237,1.018-.428,1.591-1.143,2.117H2493.01a5.743,5.743,0,0,0-.574-.186,10.423,10.423,0,0,1-7.252-5.181,27.779,27.779,0,0,1-1.506-3.966Zm30.639,2.512c-.073-2.235-.191-4.374-.2-6.513-.028-5.831-.01-11.663-.01-17.494v-.969c-1.514,0-2.893-.087-4.257.014a24.748,24.748,0,0,0-21.9,18.795,42.978,42.978,0,0,0-.679,9.991c0,4.62,3.02,7.658,7.617,7.661q9.105.007,18.212,0c.314,0,.628-.027.956-.042v-7.852h-11.514c-1.661,0-2.495-.579-2.525-1.75-.031-1.2.841-1.839,2.524-1.839Zm25.119-54.6c0-1.62.046-3.142-.008-4.662a14.274,14.274,0,0,0-14.656-13.945,9.328,9.328,0,0,0,.414,18.648c4.513.042,9.026.011,13.54.01C2538.928,1926.566,2539.132,1926.538,2539.435,1926.516Zm-29.2,3.5c0,2.483-.037,4.9.016,7.32a16.073,16.073,0,0,0,.37,3.283,12.047,12.047,0,0,0,4.168,6.663c.18-.337.315-.6.459-.859a9.4,9.4,0,0,1,6.529-4.884,16.98,16.98,0,0,1,3.3-.228c3.226-.028,6.452-.01,9.751-.01.962-3.7.339-7.4.558-11.142h-1.107c-3.08,0-6.16.015-9.24-.011a12.658,12.658,0,0,1-7.593-2.566c-.208-.154-.429-.291-.642-.434A13.771,13.771,0,0,1,2510.239,1930.015Zm4.206-5.555a13.322,13.322,0,0,1-2.109-9.015,7.262,7.262,0,0,0-5.287,5.546,47.881,47.881,0,0,0-.327,5.4A9.924,9.924,0,0,0,2514.444,1924.46Zm23.357,63.169h-11.24l1.056,4.914H2537.8Zm3.672,4.929h6.726v-4.919h-6.726Zm-23.7-4.906v4.9h5.925C2524.237,1989.124,2521.908,1987.2,2517.771,1987.652Zm34.12,4.847c2.822-.171,5.76-2.6,5.951-4.859h-5.951Z" transform="translate(-2483.678 -1904.292)" fill="#fff"/>
          <path id="Trazado_122297" data-name="Trazado 122297" d="M2793.36,2215.071a6.666,6.666,0,1,1,6.669-6.676A6.648,6.648,0,0,1,2793.36,2215.071Zm.03-9.743a3.077,3.077,0,1,0,3.049,3.1A3.054,3.054,0,0,0,2793.391,2205.327Z" transform="translate(-2732.194 -2148.254)" fill="#fff"/>
          <path id="Trazado_122298" data-name="Trazado 122298" d="M2887.733,2110.168a1.826,1.826,0,0,1,1.778,1.85,1.789,1.789,0,0,1-3.576-.109A1.833,1.833,0,0,1,2887.733,2110.168Z" transform="translate(-2813.603 -2073.149)" fill="#fff"/>
          <path id="Trazado_122299" data-name="Trazado 122299" d="M2661.226,2070.415a1.74,1.74,0,0,1,1.829-1.688,1.772,1.772,0,1,1-.159,3.538A1.749,1.749,0,0,1,2661.226,2070.415Z" transform="translate(-2629.299 -2039.158)" fill="#fff"/>
          <path id="Trazado_122300" data-name="Trazado 122300" d="M2723.105,2070.412a1.74,1.74,0,0,1,1.832-1.685,1.771,1.771,0,1,1-.166,3.538A1.749,1.749,0,0,1,2723.105,2070.412Z" transform="translate(-2680.052 -2039.159)" fill="#fff"/>
        </g>
      </g>
    </g>
  </g>
</svg>
