<svg xmlns="http://www.w3.org/2000/svg" width="232.355" height="128.941" viewBox="0 0 232.355 128.941">
  <g id="Grupo_89386" data-name="Grupo 89386" transform="translate(4670.355 997.855)">
    <g id="Grupo_78338" data-name="Grupo 78338" transform="translate(-4670.355 -997.855)">
      <path id="Trazado_113510" data-name="Trazado 113510" d="M161.315,71.056c-2.59,0-3.869,2.068-4.9,3.73-1.041,1.682-1.745,2.713-3.072,2.713s-2.03-1.031-3.068-2.713c-1.027-1.662-2.306-3.73-4.9-3.73s-3.869,2.068-4.9,3.73c-1.039,1.682-1.744,2.713-3.069,2.713s-2.029-1.031-3.068-2.713c-1.027-1.662-2.306-3.73-4.9-3.73s-3.868,2.069-4.894,3.731c-1.039,1.681-1.743,2.711-3.067,2.711s-2.027-1.031-3.067-2.711c-1.027-1.663-2.3-3.731-4.894-3.731s-3.867,2.068-4.894,3.731C107.6,76.468,106.9,77.5,105.574,77.5a1.074,1.074,0,1,0,0,2.147c2.588,0,3.867-2.068,4.894-3.73,1.038-1.682,1.743-2.713,3.067-2.713s2.027,1.031,3.067,2.713c1.027,1.662,2.306,3.73,4.894,3.73s3.867-2.068,4.893-3.73c1.039-1.682,1.743-2.713,3.068-2.713s2.029,1.031,3.068,2.713c1.027,1.662,2.306,3.73,4.9,3.73s3.868-2.068,4.9-3.73c1.038-1.682,1.743-2.713,3.069-2.713s2.029,1.031,3.068,2.713c1.026,1.662,2.306,3.73,4.9,3.73s3.87-2.068,4.9-3.73c1.041-1.682,1.745-2.713,3.07-2.713s2.031,1.031,3.072,2.713c1.027,1.662,2.307,3.73,4.9,3.73a1.074,1.074,0,0,0,0-2.147c-1.326,0-2.031-1.031-3.072-2.713C165.185,73.124,163.906,71.056,161.315,71.056Z" transform="translate(-104.499 -52.34)" fill="#7b1fa2"/>
      <path id="Trazado_113511" data-name="Trazado 113511" d="M161.315,78.718c-2.59,0-3.869,2.069-4.9,3.73-1.041,1.683-1.745,2.714-3.072,2.714s-2.03-1.031-3.068-2.713c-1.027-1.662-2.306-3.731-4.9-3.731s-3.869,2.069-4.9,3.731c-1.039,1.682-1.744,2.713-3.069,2.713s-2.029-1.031-3.068-2.713c-1.027-1.662-2.306-3.731-4.9-3.731s-3.868,2.07-4.894,3.731c-1.039,1.682-1.743,2.713-3.067,2.713s-2.027-1.031-3.067-2.713c-1.027-1.662-2.3-3.731-4.894-3.731s-3.867,2.069-4.894,3.731c-1.039,1.682-1.743,2.713-3.067,2.713a1.074,1.074,0,1,0,0,2.147c2.588,0,3.867-2.069,4.894-3.731,1.038-1.681,1.743-2.711,3.067-2.711s2.027,1.031,3.067,2.711c1.027,1.662,2.306,3.731,4.894,3.731s3.867-2.069,4.893-3.731c1.039-1.681,1.743-2.711,3.068-2.711s2.029,1.031,3.068,2.711c1.027,1.662,2.306,3.731,4.9,3.731s3.868-2.069,4.9-3.731c1.038-1.681,1.743-2.711,3.069-2.711s2.029,1.031,3.068,2.711c1.026,1.662,2.306,3.731,4.9,3.731s3.87-2.069,4.9-3.731c1.041-1.681,1.745-2.711,3.07-2.711s2.031,1.031,3.072,2.711c1.027,1.662,2.307,3.731,4.9,3.731a1.074,1.074,0,0,0,0-2.147c-1.326,0-2.031-1.031-3.072-2.713C165.185,80.787,163.906,78.718,161.315,78.718Z" transform="translate(-104.499 -69.361)" fill="#7b1fa2"/>
      <path id="Trazado_113512" data-name="Trazado 113512" d="M161.315,86.38c-2.59,0-3.869,2.068-4.9,3.73-1.041,1.682-1.745,2.713-3.072,2.713s-2.03-1.031-3.068-2.713c-1.027-1.662-2.306-3.73-4.9-3.73s-3.869,2.068-4.9,3.73c-1.039,1.682-1.744,2.713-3.069,2.713s-2.029-1.031-3.068-2.713c-1.027-1.662-2.306-3.73-4.9-3.73s-3.868,2.068-4.894,3.73c-1.039,1.682-1.743,2.713-3.067,2.713s-2.027-1.031-3.067-2.713c-1.027-1.662-2.3-3.73-4.894-3.73s-3.867,2.068-4.894,3.73c-1.039,1.682-1.743,2.713-3.067,2.713a1.074,1.074,0,1,0,0,2.147c2.588,0,3.867-2.069,4.894-3.731,1.038-1.681,1.743-2.711,3.067-2.711s2.027,1.031,3.067,2.711c1.027,1.662,2.306,3.731,4.894,3.731s3.867-2.069,4.893-3.73c1.039-1.682,1.743-2.713,3.068-2.713s2.029,1.031,3.068,2.713c1.027,1.661,2.306,3.73,4.9,3.73s3.868-2.069,4.9-3.73c1.038-1.682,1.743-2.713,3.069-2.713s2.029,1.031,3.068,2.713c1.026,1.661,2.306,3.73,4.9,3.73s3.87-2.069,4.9-3.73c1.041-1.682,1.745-2.713,3.07-2.713s2.031,1.031,3.072,2.713c1.027,1.661,2.307,3.73,4.9,3.73a1.074,1.074,0,0,0,0-2.147c-1.326,0-2.031-1.031-3.072-2.713C165.185,88.448,163.906,86.38,161.315,86.38Z" transform="translate(-104.499 -86.38)" fill="#7b1fa2"/>
    </g>
    <g id="Grupo_89381" data-name="Grupo 89381" transform="translate(-4879 -10163.914)">
      <circle id="Elipse_4780" data-name="Elipse 4780" cx="58.5" cy="58.5" r="58.5" transform="translate(324 9178)" fill="#fff"/>
      <g id="Grupo_64097" data-name="Grupo 64097" transform="translate(130.341 8679.586)">
        <g id="Grupo_64090" data-name="Grupo 64090" transform="translate(222.659 521.415)">
          <path id="Trazado_133085" data-name="Trazado 133085" d="M238.739,537.169a6.583,6.583,0,0,1,3.428-2.228,2.281,2.281,0,0,1,.7-.026q8.41-.04,16.816-.043a5.709,5.709,0,0,1,3,10.751c1.578,1.469,3.137,2.938,4.6,4.509a56.307,56.307,0,0,1,11.371,16.933,24.745,24.745,0,0,1,1.825,13.213,12.371,12.371,0,0,1-9.794,10.892,31.893,31.893,0,0,1-6.963,1.013c-7.265.32-14.533.158-21.8.1a29.867,29.867,0,0,1-11.2-1.93,12.242,12.242,0,0,1-7.837-10.016,25.25,25.25,0,0,1,2.541-14.841,59.533,59.533,0,0,1,12.513-17.276c.877-.874,1.794-1.7,2.725-2.582-.355-.261-.707-.491-1.023-.76a5.294,5.294,0,0,1-2-4.389,2.359,2.359,0,0,0-.5-1.564,15.979,15.979,0,0,1-3.218-10.225,6.149,6.149,0,0,1,4.692-6.154,6.81,6.81,0,0,1,4.659.575,11.575,11.575,0,0,1,2.545,1.709c.391.35.546.4.829-.131a5.81,5.81,0,0,1,10.259-.391c.363.537.552.6,1.07.181a9.332,9.332,0,0,1,4.041-2.033,5.668,5.668,0,0,1,6.99,3.926,5.578,5.578,0,0,1,.137.622,13.694,13.694,0,0,1-.955,8.313,9.911,9.911,0,0,1-.391.912,1.142,1.142,0,0,1-2.086-.93h0a15.959,15.959,0,0,0,1.349-4.643,7.069,7.069,0,0,0-.34-3.519,3.684,3.684,0,0,0-4.651-2.348c-.074.024-.147.051-.22.08a9.906,9.906,0,0,0-3.549,2.216c-1.066.973-1.674.88-2.4-.391A7.071,7.071,0,0,0,254,524.4a3.308,3.308,0,0,0-4.391.117,7.805,7.805,0,0,0-1.932,2.631c-.55,1.094-1.315,1.225-2.19.369a10.572,10.572,0,0,0-3.952-2.628,3.755,3.755,0,0,0-5.188,3.029,11.713,11.713,0,0,0,.964,6.482A14.621,14.621,0,0,0,238.739,537.169Zm13.214,52.855h3.65a64.554,64.554,0,0,0,12.611-.856,14.481,14.481,0,0,0,6.256-2.645c2.877-2.271,3.793-5.435,3.946-8.908a22.98,22.98,0,0,0-1.871-9.75c-3.53-8.643-9.386-15.512-16.5-21.4a1.023,1.023,0,0,0-.725-.209H244a1.316,1.316,0,0,0-.912.321,57.22,57.22,0,0,0-15.554,19.792,22.162,22.162,0,0,0-2.5,12.3,11.011,11.011,0,0,0,6.136,9.125,23.02,23.02,0,0,0,8.62,2.086C243.842,590.205,247.9,590,251.952,590.025Zm-.251-52.849v-.008c-2.718,0-5.436.009-8.153,0a3.574,3.574,0,0,0-2.454.8,3.414,3.414,0,0,0-1.018,3.692,3.293,3.293,0,0,0,3.259,2.306q8.332.021,16.663,0a3.624,3.624,0,0,0,.912-.108A3.364,3.364,0,0,0,263.4,540.1a3.3,3.3,0,0,0-3.268-2.913c-2.8-.03-5.61-.009-8.426-.009Z" transform="translate(-222.659 -521.415)" fill="#7b1fa2"/>
          <path id="Trazado_133089" data-name="Trazado 133089" d="M248.151,599.631c.782-.235,1.234.112,1.623.782a13.085,13.085,0,0,0,12.18,6.977,13.284,13.284,0,1,0-13.673-14.816,10.238,10.238,0,0,0-.095,1.283,1.246,1.246,0,0,1-1.048,1.417l-.051.007c-.924-.181-1.209-.522-1.2-1.455a15.6,15.6,0,1,1,1.881,7.708C247.288,600.634,247.363,600.268,248.151,599.631Z" transform="translate(-232.464 -545.517)" fill="#7b1fa2"/>
          <path id="Trazado_133090" data-name="Trazado 133090" d="M268.182,596.6a1.638,1.638,0,0,0,1.5,1.762c.05,0,.1.005.151,0a3.911,3.911,0,0,1,3.866,3.276,4,4,0,0,1-2.2,4.522.788.788,0,0,0-.473.689,1.025,1.025,0,0,1-1.107.912,1,1,0,0,1-1.108-.881l0-.018c-.044-.421-.254-.531-.576-.671a3.938,3.938,0,0,1-2.2-2.312c-.325-.876-.13-1.451.578-1.725s1.221.036,1.564.9a1.824,1.824,0,0,0,2.3,1.172l.054-.018a1.924,1.924,0,0,0,.968-2.469,1.577,1.577,0,0,0-1.622-1.062,4.091,4.091,0,0,1-3.832-5.181,3.662,3.662,0,0,1,2.235-2.607.677.677,0,0,0,.514-.712,1.19,1.19,0,0,1,1.168-1.212h.066c.613.021.995.436,1.021,1.228.012.382.165.514.491.652a3.91,3.91,0,0,1,2.29,2.41c.287.835.082,1.409-.591,1.662-.714.269-1.249-.033-1.572-.889a1.8,1.8,0,0,0-2.182-1.258A1.769,1.769,0,0,0,268.182,596.6Z" transform="translate(-240.905 -550.782)" fill="#7b1fa2"/>
        </g>
      </g>
    </g>
  </g>
</svg>
