<svg xmlns="http://www.w3.org/2000/svg" width="231.356" height="110.551" viewBox="0 0 231.356 110.551">
  <g id="Grupo_89356" data-name="Grupo 89356" transform="translate(2771.356 6013.346)">
    <g id="Grupo_78338" data-name="Grupo 78338" transform="translate(-2771.356 -6013.346)">
      <path id="Trazado_113510" data-name="Trazado 113510" d="M161.315,71.056c-2.59,0-3.869,2.068-4.9,3.73-1.041,1.682-1.745,2.713-3.072,2.713s-2.03-1.031-3.068-2.713c-1.027-1.662-2.306-3.73-4.9-3.73s-3.869,2.068-4.9,3.73c-1.039,1.682-1.744,2.713-3.069,2.713s-2.029-1.031-3.068-2.713c-1.027-1.662-2.306-3.73-4.9-3.73s-3.868,2.069-4.894,3.731c-1.039,1.681-1.743,2.711-3.067,2.711s-2.027-1.031-3.067-2.711c-1.027-1.663-2.3-3.731-4.894-3.731s-3.867,2.068-4.894,3.731C107.6,76.468,106.9,77.5,105.574,77.5a1.074,1.074,0,1,0,0,2.147c2.588,0,3.867-2.068,4.894-3.73,1.038-1.682,1.743-2.713,3.067-2.713s2.027,1.031,3.067,2.713c1.027,1.662,2.306,3.73,4.894,3.73s3.867-2.068,4.893-3.73c1.039-1.682,1.743-2.713,3.068-2.713s2.029,1.031,3.068,2.713c1.027,1.662,2.306,3.73,4.9,3.73s3.868-2.068,4.9-3.73c1.038-1.682,1.743-2.713,3.069-2.713s2.029,1.031,3.068,2.713c1.026,1.662,2.306,3.73,4.9,3.73s3.87-2.068,4.9-3.73c1.041-1.682,1.745-2.713,3.07-2.713s2.031,1.031,3.072,2.713c1.027,1.662,2.307,3.73,4.9,3.73a1.074,1.074,0,0,0,0-2.147c-1.326,0-2.031-1.031-3.072-2.713C165.185,73.124,163.906,71.056,161.315,71.056Z" transform="translate(-104.499 -52.34)" fill="#bc7bd8"/>
      <path id="Trazado_113511" data-name="Trazado 113511" d="M161.315,78.718c-2.59,0-3.869,2.069-4.9,3.73-1.041,1.683-1.745,2.714-3.072,2.714s-2.03-1.031-3.068-2.713c-1.027-1.662-2.306-3.731-4.9-3.731s-3.869,2.069-4.9,3.731c-1.039,1.682-1.744,2.713-3.069,2.713s-2.029-1.031-3.068-2.713c-1.027-1.662-2.306-3.731-4.9-3.731s-3.868,2.07-4.894,3.731c-1.039,1.682-1.743,2.713-3.067,2.713s-2.027-1.031-3.067-2.713c-1.027-1.662-2.3-3.731-4.894-3.731s-3.867,2.069-4.894,3.731c-1.039,1.682-1.743,2.713-3.067,2.713a1.074,1.074,0,1,0,0,2.147c2.588,0,3.867-2.069,4.894-3.731,1.038-1.681,1.743-2.711,3.067-2.711s2.027,1.031,3.067,2.711c1.027,1.662,2.306,3.731,4.894,3.731s3.867-2.069,4.893-3.731c1.039-1.681,1.743-2.711,3.068-2.711s2.029,1.031,3.068,2.711c1.027,1.662,2.306,3.731,4.9,3.731s3.868-2.069,4.9-3.731c1.038-1.681,1.743-2.711,3.069-2.711s2.029,1.031,3.068,2.711c1.026,1.662,2.306,3.731,4.9,3.731s3.87-2.069,4.9-3.731c1.041-1.681,1.745-2.711,3.07-2.711s2.031,1.031,3.072,2.711c1.027,1.662,2.307,3.731,4.9,3.731a1.074,1.074,0,0,0,0-2.147c-1.326,0-2.031-1.031-3.072-2.713C165.185,80.787,163.906,78.718,161.315,78.718Z" transform="translate(-104.499 -69.361)" fill="#bc7bd8"/>
      <path id="Trazado_113512" data-name="Trazado 113512" d="M161.315,86.38c-2.59,0-3.869,2.068-4.9,3.73-1.041,1.682-1.745,2.713-3.072,2.713s-2.03-1.031-3.068-2.713c-1.027-1.662-2.306-3.73-4.9-3.73s-3.869,2.068-4.9,3.73c-1.039,1.682-1.744,2.713-3.069,2.713s-2.029-1.031-3.068-2.713c-1.027-1.662-2.306-3.73-4.9-3.73s-3.868,2.068-4.894,3.73c-1.039,1.682-1.743,2.713-3.067,2.713s-2.027-1.031-3.067-2.713c-1.027-1.662-2.3-3.73-4.894-3.73s-3.867,2.068-4.894,3.73c-1.039,1.682-1.743,2.713-3.067,2.713a1.074,1.074,0,1,0,0,2.147c2.588,0,3.867-2.069,4.894-3.731,1.038-1.681,1.743-2.711,3.067-2.711s2.027,1.031,3.067,2.711c1.027,1.662,2.306,3.731,4.894,3.731s3.867-2.069,4.893-3.73c1.039-1.682,1.743-2.713,3.068-2.713s2.029,1.031,3.068,2.713c1.027,1.661,2.306,3.73,4.9,3.73s3.868-2.069,4.9-3.73c1.038-1.682,1.743-2.713,3.069-2.713s2.029,1.031,3.068,2.713c1.026,1.661,2.306,3.73,4.9,3.73s3.87-2.069,4.9-3.73c1.041-1.682,1.745-2.713,3.07-2.713s2.031,1.031,3.072,2.713c1.027,1.661,2.307,3.73,4.9,3.73a1.074,1.074,0,0,0,0-2.147c-1.326,0-2.031-1.031-3.072-2.713C165.185,88.448,163.906,86.38,161.315,86.38Z" transform="translate(-104.499 -86.38)" fill="#bc7bd8"/>
    </g>
    <g id="Grupo_89298" data-name="Grupo 89298" transform="translate(-3369 -10801.795)">
      <g id="N9fz3q" transform="translate(-1761.503 2287)">
        <g id="Grupo_89228" data-name="Grupo 89228" transform="translate(2494.025 2511.263)">
          <path id="Trazado_122354" data-name="Trazado 122354" d="M2515.441,2560.359a29.2,29.2,0,0,1,8.013-3.825,1.141,1.141,0,0,1,.275-.082c1.578-.038,1.814-1.195,2.047-2.437a8.065,8.065,0,0,1-4.82-4.021c-.09-.174-.471-.263-.723-.277a6.162,6.162,0,0,1-6.191-6.452c-.009-2.432,0-4.865,0-7.279-2.452-.691-3.075-1.526-3.075-4.054,0-.672-.006-1.346,0-2.018a3.149,3.149,0,0,1,2.755-3.284,1.066,1.066,0,0,0,.686-.65,18.377,18.377,0,0,1,18.28-14.716c8.818.06,16.047,6.119,17.914,15.01a1.47,1.47,0,0,0,.1.256c2.624.557,3.316,1.407,3.316,4.062q0,.817,0,1.634c0,2.211-.825,3.232-3.075,3.7,0,2.3.012,4.63-.007,6.957a10.142,10.142,0,0,1-.168,2,6.028,6.028,0,0,1-5.739,4.793,1.336,1.336,0,0,0-1.318.8,7.663,7.663,0,0,1-4.477,3.52,2.517,2.517,0,0,0,2.11,2.511,31.519,31.519,0,0,1,17.923,12.917c.178.26.362.515.7.992.182-1.491.342-2.76.493-4.031.35-2.924.654-5.855,1.068-8.771a2.067,2.067,0,0,0-.836-2.148c-2.209-1.711-2.289-4.1-1.968-6.548a4.486,4.486,0,0,1,2.379-3.317,1.411,1.411,0,0,0,.6-.907,4.668,4.668,0,0,1,4.683-4.221c1.025-.015,2.051-.022,3.075,0a4.558,4.558,0,0,1,4.538,4.537c.023,11.566.047,23.132-.013,34.7a11.968,11.968,0,0,1-20.7,7.71c-.213-.232-.424-.467-.758-.834v20.011h-1.108q-16.146,0-32.291,0c-4.038,0-6.658-2.571-6.6-6.584a2.2,2.2,0,0,0-1.219-2.16c-5.882-3.812-8.448-9.315-7.965-16.267a28.754,28.754,0,0,1,2.016-8.661,1.5,1.5,0,0,0-.141-1.192q-5.168-7.809-10.4-15.575a3.942,3.942,0,0,1-.256-4.356,7.56,7.56,0,0,1,1.937-2.335,13.071,13.071,0,0,1,12.061-2.265,5.476,5.476,0,0,1,3.973,4.034C2513.387,2554.287,2514.445,2557.269,2515.441,2560.359Zm24.74-.99c0,9.6,0,19.05.025,28.5a1.2,1.2,0,0,0,.562.821,4.67,4.67,0,0,1,2.488,4.25c0,.8-.019,1.6,0,2.4a4.733,4.733,0,0,1-2.623,4.65.907.907,0,0,0-.434.616c-.047.948-.02,1.9-.02,2.863h9.269v-29.1h3.031c0,1.709-.012,3.367.009,5.025a2.775,2.775,0,0,0,.2,1.107c.481,1.044.974,2.091,1.549,3.085a8.564,8.564,0,0,0,7.432,4.549,8.851,8.851,0,0,0,9.244-8.863c.043-7.11.012-14.221.01-21.331,0-.152-.021-.3-.034-.486h-6.286c-.975,8.269-1.945,16.488-2.919,24.748l-3.034-.412c.205-1.814.421-3.5.57-5.186a2.813,2.813,0,0,0-.214-1.369,28.67,28.67,0,0,0-9.9-11.75A27.966,27.966,0,0,0,2540.181,2559.369Zm-16.914-23.465c0,3.561-.008,7.018,0,10.476a4.614,4.614,0,0,0,4.9,4.865q4.324.014,8.649,0a4.619,4.619,0,0,0,4.9-4.867c.011-3.235,0-6.471,0-9.707,0-.246-.033-.491-.053-.766Zm-7.688,37.917v10.089c0,3.181-.027,3.37,3.123,3.83a70.628,70.628,0,0,0,8.221.387c.28.008.59-.308.849-.519a19.2,19.2,0,0,1,2.437-1.982,1.263,1.263,0,0,0,.757-1.32c-.023-2.913-.011-5.827-.011-8.741v-1.751A51.609,51.609,0,0,1,2515.578,2573.822Zm-7.375,10.641,2.354-1.764,1.855,1.717a3.506,3.506,0,0,0-.71-3.045c-1.35-1.885-2.6-3.843-3.969-5.89a6.781,6.781,0,0,0-.353.937c-.328,1.693-.737,3.379-.936,5.087-.87,7.526,3.748,14.2,11.022,15.542,2.855.528,5.844.327,8.819.46v-6.26c-3.364-.085-6.706.248-9.927-.9A17.344,17.344,0,0,1,2508.2,2584.462Zm4.117-7.663.182-.073c0-2.75-.074-5.5.036-8.25a18.385,18.385,0,0,1,.754-3.317,1.948,1.948,0,0,0,.15-.887c-.888-2.854-1.816-5.7-2.763-8.635a14.474,14.474,0,0,1-10.286,3.294Zm1.765-44.072h36.782v-2.963h-36.782Zm3.418-6.164h10.34v-11.4C2523.345,2516.19,2518.469,2520.88,2517.5,2526.564Zm19.67-11.412v11.489h10.3C2546.867,2521.644,2541.99,2516.235,2537.174,2515.152Zm33.751,39.169c0-3.184.023-6.254-.015-9.322a1.468,1.468,0,0,0-1.612-1.434c-.9-.027-1.794-.017-2.691-.005-1.254.017-1.8.569-1.82,1.827-.012.916,0,1.832,0,2.734-3.005.2-3.276.508-3.073,3.356.061.856,1.786,2.826,2.558,2.836C2566.444,2554.339,2568.619,2554.321,2570.925,2554.321Zm-35.361,36.91a6.392,6.392,0,0,0-.027-1.54c-.125-.46-.417-1.2-.706-1.232a7.782,7.782,0,0,0-3.419.046,3.244,3.244,0,0,0-1.9,2.1,58.647,58.647,0,0,0-.09,6.766c3.189,0,6.288.038,9.385-.024a1.414,1.414,0,0,0,1.368-1.571q.031-1.392,0-2.787a1.577,1.577,0,0,0-1.8-1.753C2537.486,2591.22,2536.594,2591.231,2535.564,2591.231Zm-10.754-21.593h-3.253c.247-1.574.479-3.053.714-4.552h-.759c-.991,0-1.984-.029-2.974.011a3.063,3.063,0,0,0-.019,6.122q4.746.071,9.5,0a3.037,3.037,0,0,0,2.936-3.165,3.071,3.071,0,0,0-6.136-.034C2524.786,2568.529,2524.809,2569.041,2524.809,2569.639Zm12.247-7.774c-.83,1.029-1.5,1.951-2.27,2.79s-1.308,1.668-.81,2.873a3.425,3.425,0,0,1,.053,1.238q0,7.633,0,15.263v.836l3.026,1.141Zm-36.1-5.955c3.121-.15,5.493-.7,7.433-2.409,1.545-1.362,1.288-2.645-.636-3.348a9.048,9.048,0,0,0-5.2-.175,8.4,8.4,0,0,0-4.891,2.615c-.862,1.039-.733,1.921.493,2.475A17.762,17.762,0,0,0,2500.961,2555.909Zm31.448,6.6c.142-.066.216-.076.25-.119a38.461,38.461,0,0,1,2.98-3.638,2.918,2.918,0,0,0,.581-3.821c-.217-.453-.4-.633-.9-.622-1.377.029-2.755.01-4.132.01-2.4,0-2.407,0-2.973,2.36a.914.914,0,0,0,.092.684C2529.666,2559.1,2531.049,2560.812,2532.409,2562.513Zm-16.737,37.381a2.984,2.984,0,0,0,2.786,3.614c3.2.067,6.4.058,9.6,0a2.86,2.86,0,0,0,2.8-2.99C2525.8,2600.19,2520.7,2600.974,2515.673,2599.894Zm15.349-85.471v12.141h2.938v-12.219c-.7,0-1.336-.008-1.968,0C2531.68,2514.353,2531.368,2514.395,2531.021,2514.423Zm-3,47.55c-.418-.531-.729-.929-1.044-1.323-1.278-1.6-1.3-1.649-3.271-.932-1.62.589-3.187,1.319-4.778,1.987l.1.268Zm-7.86-21.457a3.054,3.054,0,0,0-3.038,3.24,2.9,2.9,0,0,0,3.038,2.76Zm24.662,6.077a3.061,3.061,0,0,0,3.039-3.228,2.924,2.924,0,0,0-3.039-2.779Zm-10.651,53.9-.829,2.987h3.709V2600.5Zm-17.031-62.4,2.985-.824v-1.333h-2.985Zm27.7-2.178v1.353l2.985.823v-2.176Z" transform="translate(-2494.025 -2511.263)" fill="#bc7bd8"/>
        </g>
      </g>
      <rect id="Rectángulo_35606" data-name="Rectángulo 35606" width="113" height="107" transform="translate(716 4792)" fill="none"/>
    </g>
  </g>
</svg>
