<svg xmlns="http://www.w3.org/2000/svg" width="226.503" height="110.551" viewBox="0 0 226.503 110.551">
  <g id="Grupo_89355" data-name="Grupo 89355" transform="translate(2487.503 6013.346)">
    <g id="Grupo_89299" data-name="Grupo 89299" transform="translate(-3506 -10763.795)">
      <g id="IEr77Y" transform="translate(-1615.605 2239.565)">
        <g id="Grupo_89229" data-name="Grupo 89229" transform="translate(2758.606 2522.435)">
          <path id="Trazado_122355" data-name="Trazado 122355" d="M2801.859,2612.482h-35.511a.733.733,0,0,0-.212-.136c-4.823-1.091-7.52-4.453-7.523-9.392,0-6.328-.016-12.655,0-18.983a25.511,25.511,0,0,1,16.643-23.9c.229-.086.45-.192.739-.315a19.54,19.54,0,0,1,14.065-36.385,18.7,18.7,0,0,1,10.709,8.474c3.65,6.183,3.727,12.572.693,19.109h6.665c0-1.02-.013-1.923,0-2.825a4.417,4.417,0,0,1,4.548-4.655q5.929-.082,11.861,0a4.44,4.44,0,0,1,4.571,4.726c.006.9,0,1.794,0,2.755h1.065q6.721,0,13.444,0a7.275,7.275,0,0,1,1.223.078,4.711,4.711,0,0,1,3.776,3.6v39.211c-.883,2.757-2.843,3.693-5.638,3.676-10.74-.067-21.482-.028-32.223-.028H2809.6c0,2.161.063,4.179-.014,6.192a8.694,8.694,0,0,1-5.105,7.893A20.033,20.033,0,0,1,2801.859,2612.482Zm-1.243-70.457a16.506,16.506,0,1,0-16.544,16.453A16.523,16.523,0,0,0,2800.616,2542.025Zm23.984,29.957c0,1.636.05,3.128-.011,4.615a4.448,4.448,0,0,1-4.472,4.382c-.819.026-1.64.008-2.46.007-3.225,0-5.049-1.836-5.053-5.074,0-1.28,0-2.56,0-3.868h-5.913c.137.318.228.559.341.789a21.657,21.657,0,0,1,2.392,8.474c.174,3.77.133,7.55.182,11.326.008.58,0,1.159,0,1.8.33.023.586.057.841.057q16.6,0,33.209,0c1.448,0,1.966-.524,1.966-1.957q.005-11.028,0-22.055c0-.214-.04-.427-.065-.679-2.944,1.932-3.8,2.187-7.3,2.187H2824.6Zm-32.308-12.285c1.516.727,2.99,1.317,4.341,2.114a6.622,6.622,0,0,0,3.913,1.187c1.213-.077,1.8.971,1.437,2.122a1.076,1.076,0,0,0,.174.855c.6.754,1.326,1.413,1.891,2.192a1.814,1.814,0,0,0,1.672.827q16.559-.039,33.116-.018c.322,0,.645,0,.966-.02a5.981,5.981,0,0,0,5.819-6.144c.016-2.314.009-4.627,0-6.941,0-1.381-.532-1.915-1.918-1.916q-21.785-.005-43.57.02a1.623,1.623,0,0,0-1.086.512,20.478,20.478,0,0,1-6.16,4.872C2792.691,2559.46,2792.5,2559.578,2792.292,2559.7Zm5.375,49.789c1.02,0,1.925.009,2.829,0a5.98,5.98,0,0,0,6.111-6.12c.016-6.53.035-13.06-.009-19.589a21.754,21.754,0,0,0-5.072-13.99c-1.022-1.246-2.239-2.333-3.367-3.494l-.252.144q-2.982,15.5-5.967,31.021A7.594,7.594,0,0,1,2797.666,2609.486Zm-20.6-47c-1.528.739-2.857,1.4-4.2,2.023a1.217,1.217,0,0,0-.752,1.3q.029,21.349.015,42.7v.925h10.3C2780.646,2593.829,2778.872,2578.285,2777.068,2562.487Zm-7.979,37.988a15.18,15.18,0,0,1-1.577-.009,1.449,1.449,0,0,1-1.371-1.534,1.424,1.424,0,0,1,1.467-1.426c.483-.027.969,0,1.457,0v-30.048c-.117.033-.183.034-.222.066-.156.133-.309.27-.455.414a21.576,21.576,0,0,0-6.729,15.182c-.166,6.818-.082,13.643-.034,20.465a6.062,6.062,0,0,0,7.464,5.781Zm23.1-37.513c-.152.4-.26.668-.354.939-2.763,7.984-5.512,15.974-8.306,23.948a5.576,5.576,0,0,0-.269,2.658c.126.957.219,1.919.334,2.878.162,1.354.33,2.709.5,4.108,1.361,0,2.619-.034,3.873.014.674.025.97-.146,1.083-.872.3-1.906.7-3.8,1.067-5.692q2.491-12.925,4.993-25.847c.094-.479.026-.767-.442-.971C2793.873,2563.776,2793.092,2563.386,2792.193,2562.961Zm-12.172-1.088q1.136,9.962,2.27,19.906l.187.009,6.8-19.675A21.4,21.4,0,0,0,2780.02,2561.873Zm5.436,47.6c2.234,0,4.342.067,6.445-.018a4.48,4.48,0,0,0-.143-8.948c-2.136-.044-4.274-.015-6.411-.014-.284,0-.567.024-.915.041C2784.776,2603.544,2785.112,2606.471,2785.456,2609.475Zm40.662-58.565c0-.882,0-1.723,0-2.564-.009-1.345-.508-1.863-1.848-1.873-2.048-.015-4.1,0-6.144,0-1.755,0-3.51-.012-5.265.006-.991.01-1.619.416-1.675,1.195-.075,1.066-.019,2.14-.019,3.24Zm-4.529,21.154h-5.981c0,1.509-.03,2.938.011,4.365a1.458,1.458,0,0,0,1.48,1.536,27.5,27.5,0,0,0,3.066-.005,1.365,1.365,0,0,0,1.413-1.391C2821.618,2575.084,2821.589,2573.6,2821.589,2572.064Z" transform="translate(-2758.606 -2522.436)" fill="#bc7bd8"/>
          <path id="Trazado_122356" data-name="Trazado 122356" d="M2891.028,2684.634q-2.23,0-2.225-1.512c.005-1.01.734-1.5,2.235-1.5,1.517,0,2.239.466,2.269,1.467C2893.337,2684.123,2892.582,2684.635,2891.028,2684.634Z" transform="translate(-2834.794 -2615.587)" fill="#bc7bd8"/>
          <path id="Trazado_122357" data-name="Trazado 122357" d="M2945.243,2684.623c-.146,0-.293.005-.439,0-1.093-.042-1.78-.646-1.756-1.54.024-.869.679-1.43,1.738-1.465a10.353,10.353,0,0,1,1.314.019,1.482,1.482,0,0,1,.018,2.963,7.929,7.929,0,0,1-.875.005Z" transform="translate(-2866.537 -2615.578)" fill="#bc7bd8"/>
          <path id="Trazado_122358" data-name="Trazado 122358" d="M2909.2,2681.581a8.9,8.9,0,0,1,.958.07,1.4,1.4,0,0,1,1.227,1.466,1.352,1.352,0,0,1-1.254,1.437,8.747,8.747,0,0,1-1.746.032,1.449,1.449,0,0,1-1.452-1.452,1.47,1.47,0,0,1,1.479-1.519c.26-.025.525,0,.788,0Z" transform="translate(-2845.402 -2615.563)" fill="#bc7bd8"/>
          <path id="Trazado_122359" data-name="Trazado 122359" d="M2927.314,2681.649a6.6,6.6,0,0,1,.787.005,1.45,1.45,0,0,1,1.388,1.51,1.429,1.429,0,0,1-1.368,1.437,9.4,9.4,0,0,1-1.573.02,1.491,1.491,0,1,1-.022-2.982c.261-.023.525,0,.788,0Z" transform="translate(-2855.995 -2615.591)" fill="#bc7bd8"/>
          <path id="Trazado_122360" data-name="Trazado 122360" d="M2953.938,2669.368c0-1.488.5-2.224,1.51-2.2s1.483.753,1.482,2.255a7.786,7.786,0,0,1-.012.789,1.53,1.53,0,0,1-1.567,1.453,1.493,1.493,0,0,1-1.411-1.505C2953.925,2669.9,2953.938,2669.631,2953.938,2669.368Z" transform="translate(-2872.907 -2607.127)" fill="#bc7bd8"/>
          <path id="Trazado_122361" data-name="Trazado 122361" d="M2953.938,2651.368c0-.263-.016-.527,0-.788a1.425,1.425,0,0,1,1.371-1.428,1.449,1.449,0,0,1,1.587,1.3,9.506,9.506,0,0,1,.021,1.576,1.483,1.483,0,0,1-1.527,1.565,1.458,1.458,0,0,1-1.46-1.615c-.007-.2,0-.409,0-.614Z" transform="translate(-2872.905 -2596.584)" fill="#bc7bd8"/>
          <path id="Trazado_122362" data-name="Trazado 122362" d="M2953.939,2607.9c-.005-1.5.482-2.232,1.484-2.229s1.508.749,1.507,2.233a7.177,7.177,0,0,1-.018.876,1.53,1.53,0,0,1-1.536,1.395,1.5,1.5,0,0,1-1.434-1.485C2953.926,2608.427,2953.939,2608.164,2953.939,2607.9Z" transform="translate(-2872.907 -2571.143)" fill="#bc7bd8"/>
          <path id="Trazado_122363" data-name="Trazado 122363" d="M2891.047,2623.1c-1.51.023-2.233-.456-2.243-1.46s.735-1.524,2.216-1.522a6.206,6.206,0,0,1,.961.04,1.5,1.5,0,0,1,1.325,1.5,1.48,1.48,0,0,1-1.384,1.438A7.757,7.757,0,0,1,2891.047,2623.1Z" transform="translate(-2834.795 -2579.598)" fill="#bc7bd8"/>
          <path id="Trazado_122364" data-name="Trazado 122364" d="M2945.317,2623.125c-1.525,0-2.239-.459-2.268-1.458-.03-1.031.732-1.55,2.278-1.549q2.228,0,2.224,1.516C2947.548,2622.641,2946.824,2623.124,2945.317,2623.125Z" transform="translate(-2866.537 -2579.596)" fill="#bc7bd8"/>
          <path id="Trazado_122365" data-name="Trazado 122365" d="M2873.016,2623.088a7.911,7.911,0,0,1-.875,0,1.474,1.474,0,0,1-.041-2.934,8.644,8.644,0,0,1,1.66-.024,1.489,1.489,0,1,1-.044,2.977c-.233.018-.467,0-.7,0Z" transform="translate(-2824.253 -2579.584)" fill="#bc7bd8"/>
          <path id="Trazado_122366" data-name="Trazado 122366" d="M2909.136,2623.105c-1.533.02-2.207-.439-2.2-1.48s.7-1.507,2.212-1.5a6.1,6.1,0,0,1,.96.043,1.476,1.476,0,0,1-.095,2.936A8.349,8.349,0,0,1,2909.136,2623.105Z" transform="translate(-2845.403 -2579.598)" fill="#bc7bd8"/>
          <path id="Trazado_122367" data-name="Trazado 122367" d="M2927.285,2623.143c-.321-.014-.645,0-.961-.049a1.4,1.4,0,0,1-1.28-1.418,1.341,1.341,0,0,1,1.2-1.479,7.858,7.858,0,0,1,2-.007,1.467,1.467,0,0,1-.088,2.911C2927.871,2623.136,2927.577,2623.129,2927.285,2623.143Z" transform="translate(-2856.002 -2579.603)" fill="#bc7bd8"/>
        </g>
      </g>
      <rect id="Rectángulo_35607" data-name="Rectángulo 35607" width="113" height="107" transform="translate(1132 4754)" fill="none"/>
    </g>
    <g id="Grupo_89354" data-name="Grupo 89354" transform="translate(-2487.503 -6013.346)">
      <path id="Trazado_113510" data-name="Trazado 113510" d="M161.315,71.056c-2.59,0-3.869,2.068-4.9,3.73-1.041,1.682-1.745,2.713-3.072,2.713s-2.03-1.031-3.068-2.713c-1.027-1.662-2.306-3.73-4.9-3.73s-3.869,2.068-4.9,3.73c-1.039,1.682-1.744,2.713-3.069,2.713s-2.029-1.031-3.068-2.713c-1.027-1.662-2.306-3.73-4.9-3.73s-3.868,2.069-4.894,3.731c-1.039,1.681-1.743,2.711-3.067,2.711s-2.027-1.031-3.067-2.711c-1.027-1.663-2.3-3.731-4.894-3.731s-3.867,2.068-4.894,3.731C107.6,76.468,106.9,77.5,105.574,77.5a1.074,1.074,0,1,0,0,2.147c2.588,0,3.867-2.068,4.894-3.73,1.038-1.682,1.743-2.713,3.067-2.713s2.027,1.031,3.067,2.713c1.027,1.662,2.306,3.73,4.894,3.73s3.867-2.068,4.893-3.73c1.039-1.682,1.743-2.713,3.068-2.713s2.029,1.031,3.068,2.713c1.027,1.662,2.306,3.73,4.9,3.73s3.868-2.068,4.9-3.73c1.038-1.682,1.743-2.713,3.069-2.713s2.029,1.031,3.068,2.713c1.026,1.662,2.306,3.73,4.9,3.73s3.87-2.068,4.9-3.73c1.041-1.682,1.745-2.713,3.07-2.713s2.031,1.031,3.072,2.713c1.027,1.662,2.307,3.73,4.9,3.73a1.074,1.074,0,0,0,0-2.147c-1.326,0-2.031-1.031-3.072-2.713C165.185,73.124,163.906,71.056,161.315,71.056Z" transform="translate(-104.499 -52.34)" fill="#bc7bd8"/>
      <path id="Trazado_113511" data-name="Trazado 113511" d="M161.315,78.718c-2.59,0-3.869,2.069-4.9,3.73-1.041,1.683-1.745,2.714-3.072,2.714s-2.03-1.031-3.068-2.713c-1.027-1.662-2.306-3.731-4.9-3.731s-3.869,2.069-4.9,3.731c-1.039,1.682-1.744,2.713-3.069,2.713s-2.029-1.031-3.068-2.713c-1.027-1.662-2.306-3.731-4.9-3.731s-3.868,2.07-4.894,3.731c-1.039,1.682-1.743,2.713-3.067,2.713s-2.027-1.031-3.067-2.713c-1.027-1.662-2.3-3.731-4.894-3.731s-3.867,2.069-4.894,3.731c-1.039,1.682-1.743,2.713-3.067,2.713a1.074,1.074,0,1,0,0,2.147c2.588,0,3.867-2.069,4.894-3.731,1.038-1.681,1.743-2.711,3.067-2.711s2.027,1.031,3.067,2.711c1.027,1.662,2.306,3.731,4.894,3.731s3.867-2.069,4.893-3.731c1.039-1.681,1.743-2.711,3.068-2.711s2.029,1.031,3.068,2.711c1.027,1.662,2.306,3.731,4.9,3.731s3.868-2.069,4.9-3.731c1.038-1.681,1.743-2.711,3.069-2.711s2.029,1.031,3.068,2.711c1.026,1.662,2.306,3.731,4.9,3.731s3.87-2.069,4.9-3.731c1.041-1.681,1.745-2.711,3.07-2.711s2.031,1.031,3.072,2.711c1.027,1.662,2.307,3.731,4.9,3.731a1.074,1.074,0,0,0,0-2.147c-1.326,0-2.031-1.031-3.072-2.713C165.185,80.787,163.906,78.718,161.315,78.718Z" transform="translate(-104.499 -69.361)" fill="#bc7bd8"/>
      <path id="Trazado_113512" data-name="Trazado 113512" d="M161.315,86.38c-2.59,0-3.869,2.068-4.9,3.73-1.041,1.682-1.745,2.713-3.072,2.713s-2.03-1.031-3.068-2.713c-1.027-1.662-2.306-3.73-4.9-3.73s-3.869,2.068-4.9,3.73c-1.039,1.682-1.744,2.713-3.069,2.713s-2.029-1.031-3.068-2.713c-1.027-1.662-2.306-3.73-4.9-3.73s-3.868,2.068-4.894,3.73c-1.039,1.682-1.743,2.713-3.067,2.713s-2.027-1.031-3.067-2.713c-1.027-1.662-2.3-3.73-4.894-3.73s-3.867,2.068-4.894,3.73c-1.039,1.682-1.743,2.713-3.067,2.713a1.074,1.074,0,1,0,0,2.147c2.588,0,3.867-2.069,4.894-3.731,1.038-1.681,1.743-2.711,3.067-2.711s2.027,1.031,3.067,2.711c1.027,1.662,2.306,3.731,4.894,3.731s3.867-2.069,4.893-3.73c1.039-1.682,1.743-2.713,3.068-2.713s2.029,1.031,3.068,2.713c1.027,1.661,2.306,3.73,4.9,3.73s3.868-2.069,4.9-3.73c1.038-1.682,1.743-2.713,3.069-2.713s2.029,1.031,3.068,2.713c1.026,1.661,2.306,3.73,4.9,3.73s3.87-2.069,4.9-3.73c1.041-1.682,1.745-2.713,3.07-2.713s2.031,1.031,3.072,2.713c1.027,1.661,2.307,3.73,4.9,3.73a1.074,1.074,0,0,0,0-2.147c-1.326,0-2.031-1.031-3.072-2.713C165.185,88.448,163.906,86.38,161.315,86.38Z" transform="translate(-104.499 -86.38)" fill="#bc7bd8"/>
    </g>
  </g>
</svg>
