<svg xmlns="http://www.w3.org/2000/svg" width="232.355" height="128.941" viewBox="0 0 232.355 128.941">
  <g id="Grupo_89387" data-name="Grupo 89387" transform="translate(4250.355 997.855)">
    <g id="Grupo_89383" data-name="Grupo 89383" transform="translate(-4879 -10063.914)">
      <circle id="Elipse_4781" data-name="Elipse 4781" cx="58.5" cy="58.5" r="58.5" transform="translate(744 9078)" fill="#fff"/>
      <g id="Grupo_89234" data-name="Grupo 89234" transform="translate(-2285.138 6567.02)">
        <path id="Trazado_122368" data-name="Trazado 122368" d="M3053.138,2590.978a35.233,35.233,0,0,1,.824-4.147c2.733-8.489,8.5-13.542,17.327-14.992,1.407-.231,2.855-.219,4.306-.32.175-.507,0-.836-.467-1.182a11.689,11.689,0,0,1-4.978-9.512c-.053-1.92-.01-3.844-.01-5.771-.543-.13-1.038-.234-1.523-.37-.531-.149-.987-.5-.978-1.046a36.732,36.732,0,0,1,.284-6.072,8.023,8.023,0,0,1,6.724-6.156,1.223,1.223,0,0,0,.791-.444,9.788,9.788,0,0,1,10.7-4.767,13.226,13.226,0,0,1,10.93,13.2c.008,1.328,0,2.656,0,3.984,0,1.273-.459,1.731-1.71,1.736-.415,0-.83,0-1.407,0v8.246h.917c2.324,0,4.648-.01,6.972.005a1.334,1.334,0,1,1,.061,2.653c-1.261-.008-2.523,0-3.785,0q-7.437,0-14.873,0a4.526,4.526,0,0,0-4.924,4.911q-.008,9.562,0,19.123c0,3.072,1.847,4.9,4.925,4.9h30.345a4.522,4.522,0,0,0,4.9-4.868q0-9.628,0-19.256a4.51,4.51,0,0,0-4.43-4.812,1.349,1.349,0,0,1-1.392-1.372,1.385,1.385,0,0,1,1.561-1.275,7.154,7.154,0,0,1,6.913,7.237q.03,8.532,0,17.064a30.016,30.016,0,0,1-.133,3.972,7.033,7.033,0,0,1-6.669,5.948c-1.126.041-2.255.007-3.252.007l-1.808,3.707c.817.114,2.03-.285,2.355,1.112.175.753-.317,1.177-.846,1.567h-50.734a4.227,4.227,0,0,0-.425-.138,7.713,7.713,0,0,1-5.366-3.833,20.5,20.5,0,0,1-1.115-2.936Zm22.675,1.859c-.054-1.655-.142-3.237-.149-4.82-.021-4.315-.007-8.631-.007-12.946v-.717c-1.121,0-2.141-.064-3.15.01a18.316,18.316,0,0,0-16.208,13.91,31.811,31.811,0,0,0-.5,7.394,5.322,5.322,0,0,0,5.637,5.669q6.739,0,13.478,0c.233,0,.465-.021.708-.032v-5.811H3067.1c-1.229,0-1.847-.428-1.869-1.294-.023-.891.623-1.361,1.869-1.361Zm18.589-40.409c0-1.2.034-2.326-.006-3.45a10.565,10.565,0,0,0-10.847-10.321,6.9,6.9,0,0,0,.306,13.8c3.34.031,6.68.008,10.021.007C3094.026,2552.465,3094.177,2552.445,3094.4,2552.428Zm-21.607,2.59c0,1.837-.027,3.627.012,5.417a11.887,11.887,0,0,0,.273,2.43,8.915,8.915,0,0,0,3.085,4.931c.132-.25.233-.444.339-.635a6.959,6.959,0,0,1,4.832-3.614,12.6,12.6,0,0,1,2.442-.169c2.387-.021,4.774-.007,7.217-.007.711-2.736.25-5.477.413-8.246h-.819c-2.28,0-4.559.011-6.838-.008a9.365,9.365,0,0,1-5.62-1.9c-.154-.114-.317-.215-.475-.321A10.192,10.192,0,0,1,3072.794,2555.018Zm3.112-4.111a9.862,9.862,0,0,1-1.561-6.671,5.371,5.371,0,0,0-3.913,4.1,35.323,35.323,0,0,0-.241,4A7.34,7.34,0,0,0,3075.906,2550.907Zm17.286,46.749h-8.319l.781,3.636h7.537Zm2.717,3.647h4.978v-3.64h-4.978Zm-17.541-3.63v3.627h4.385C3083.154,2598.761,3081.43,2597.335,3078.369,2597.673Zm25.251,3.587c2.088-.127,4.263-1.925,4.4-3.6h-4.4Z" fill="#7b1fa2"/>
        <path id="Trazado_122369" data-name="Trazado 122369" d="M3152.609,2638.641a4.934,4.934,0,1,1,4.935-4.941A4.921,4.921,0,0,1,3152.609,2638.641Zm.023-7.21a2.277,2.277,0,1,0,2.256,2.292A2.26,2.26,0,0,0,3152.632,2631.431Z" transform="translate(-54.205 -53.212)" fill="#7b1fa2"/>
        <path id="Trazado_122370" data-name="Trazado 122370" d="M3179.96,2600.208a1.351,1.351,0,0,1,1.316,1.369,1.324,1.324,0,0,1-2.647-.081A1.356,1.356,0,0,1,3179.96,2600.208Z" transform="translate(-71.961 -36.831)" fill="#7b1fa2"/>
        <path id="Trazado_122371" data-name="Trazado 122371" d="M3108.528,2588.529a1.288,1.288,0,0,1,1.354-1.249,1.311,1.311,0,1,1-.118,2.618A1.3,1.3,0,0,1,3108.528,2588.529Z" transform="translate(-31.762 -29.417)" fill="#7b1fa2"/>
        <path id="Trazado_122372" data-name="Trazado 122372" d="M3127.832,2588.527a1.288,1.288,0,0,1,1.355-1.247,1.311,1.311,0,1,1-.123,2.618A1.293,1.293,0,0,1,3127.832,2588.527Z" transform="translate(-42.832 -29.417)" fill="#7b1fa2"/>
      </g>
    </g>
    <g id="Grupo_78338" data-name="Grupo 78338" transform="translate(-4250.355 -997.855)">
      <path id="Trazado_113510" data-name="Trazado 113510" d="M161.315,71.056c-2.59,0-3.869,2.068-4.9,3.73-1.041,1.682-1.745,2.713-3.072,2.713s-2.03-1.031-3.068-2.713c-1.027-1.662-2.306-3.73-4.9-3.73s-3.869,2.068-4.9,3.73c-1.039,1.682-1.744,2.713-3.069,2.713s-2.029-1.031-3.068-2.713c-1.027-1.662-2.306-3.73-4.9-3.73s-3.868,2.069-4.894,3.731c-1.039,1.681-1.743,2.711-3.067,2.711s-2.027-1.031-3.067-2.711c-1.027-1.663-2.3-3.731-4.894-3.731s-3.867,2.068-4.894,3.731C107.6,76.468,106.9,77.5,105.574,77.5a1.074,1.074,0,1,0,0,2.147c2.588,0,3.867-2.068,4.894-3.73,1.038-1.682,1.743-2.713,3.067-2.713s2.027,1.031,3.067,2.713c1.027,1.662,2.306,3.73,4.894,3.73s3.867-2.068,4.893-3.73c1.039-1.682,1.743-2.713,3.068-2.713s2.029,1.031,3.068,2.713c1.027,1.662,2.306,3.73,4.9,3.73s3.868-2.068,4.9-3.73c1.038-1.682,1.743-2.713,3.069-2.713s2.029,1.031,3.068,2.713c1.026,1.662,2.306,3.73,4.9,3.73s3.87-2.068,4.9-3.73c1.041-1.682,1.745-2.713,3.07-2.713s2.031,1.031,3.072,2.713c1.027,1.662,2.307,3.73,4.9,3.73a1.074,1.074,0,0,0,0-2.147c-1.326,0-2.031-1.031-3.072-2.713C165.185,73.124,163.906,71.056,161.315,71.056Z" transform="translate(-104.499 -52.34)" fill="#7b1fa2"/>
      <path id="Trazado_113511" data-name="Trazado 113511" d="M161.315,78.718c-2.59,0-3.869,2.069-4.9,3.73-1.041,1.683-1.745,2.714-3.072,2.714s-2.03-1.031-3.068-2.713c-1.027-1.662-2.306-3.731-4.9-3.731s-3.869,2.069-4.9,3.731c-1.039,1.682-1.744,2.713-3.069,2.713s-2.029-1.031-3.068-2.713c-1.027-1.662-2.306-3.731-4.9-3.731s-3.868,2.07-4.894,3.731c-1.039,1.682-1.743,2.713-3.067,2.713s-2.027-1.031-3.067-2.713c-1.027-1.662-2.3-3.731-4.894-3.731s-3.867,2.069-4.894,3.731c-1.039,1.682-1.743,2.713-3.067,2.713a1.074,1.074,0,1,0,0,2.147c2.588,0,3.867-2.069,4.894-3.731,1.038-1.681,1.743-2.711,3.067-2.711s2.027,1.031,3.067,2.711c1.027,1.662,2.306,3.731,4.894,3.731s3.867-2.069,4.893-3.731c1.039-1.681,1.743-2.711,3.068-2.711s2.029,1.031,3.068,2.711c1.027,1.662,2.306,3.731,4.9,3.731s3.868-2.069,4.9-3.731c1.038-1.681,1.743-2.711,3.069-2.711s2.029,1.031,3.068,2.711c1.026,1.662,2.306,3.731,4.9,3.731s3.87-2.069,4.9-3.731c1.041-1.681,1.745-2.711,3.07-2.711s2.031,1.031,3.072,2.711c1.027,1.662,2.307,3.731,4.9,3.731a1.074,1.074,0,0,0,0-2.147c-1.326,0-2.031-1.031-3.072-2.713C165.185,80.787,163.906,78.718,161.315,78.718Z" transform="translate(-104.499 -69.361)" fill="#7b1fa2"/>
      <path id="Trazado_113512" data-name="Trazado 113512" d="M161.315,86.38c-2.59,0-3.869,2.068-4.9,3.73-1.041,1.682-1.745,2.713-3.072,2.713s-2.03-1.031-3.068-2.713c-1.027-1.662-2.306-3.73-4.9-3.73s-3.869,2.068-4.9,3.73c-1.039,1.682-1.744,2.713-3.069,2.713s-2.029-1.031-3.068-2.713c-1.027-1.662-2.306-3.73-4.9-3.73s-3.868,2.068-4.894,3.73c-1.039,1.682-1.743,2.713-3.067,2.713s-2.027-1.031-3.067-2.713c-1.027-1.662-2.3-3.73-4.894-3.73s-3.867,2.068-4.894,3.73c-1.039,1.682-1.743,2.713-3.067,2.713a1.074,1.074,0,1,0,0,2.147c2.588,0,3.867-2.069,4.894-3.731,1.038-1.681,1.743-2.711,3.067-2.711s2.027,1.031,3.067,2.711c1.027,1.662,2.306,3.731,4.894,3.731s3.867-2.069,4.893-3.73c1.039-1.682,1.743-2.713,3.068-2.713s2.029,1.031,3.068,2.713c1.027,1.661,2.306,3.73,4.9,3.73s3.868-2.069,4.9-3.73c1.038-1.682,1.743-2.713,3.069-2.713s2.029,1.031,3.068,2.713c1.026,1.661,2.306,3.73,4.9,3.73s3.87-2.069,4.9-3.73c1.041-1.682,1.745-2.713,3.07-2.713s2.031,1.031,3.072,2.713c1.027,1.661,2.307,3.73,4.9,3.73a1.074,1.074,0,0,0,0-2.147c-1.326,0-2.031-1.031-3.072-2.713C165.185,88.448,163.906,86.38,161.315,86.38Z" transform="translate(-104.499 -86.38)" fill="#7b1fa2"/>
    </g>
  </g>
</svg>
