<svg xmlns="http://www.w3.org/2000/svg" width="16.883" height="16.883" viewBox="0 0 16.883 16.883">
  <path id="Trazado_113515" data-name="Trazado 113515" d="M325.19,447.512a3.1,3.1,0,0,0,.909,2.2l3.142,3.141-3.142,3.141a3.105,3.105,0,0,0,4.391,4.391l3.141-3.141,3.141,3.141a3.1,3.1,0,0,0,4.391-4.391l-3.141-3.141,3.141-3.141a3.105,3.105,0,0,0,0-4.391h0a3.105,3.105,0,0,0-4.391,0l-3.141,3.141-3.141-3.141a3.106,3.106,0,0,0-4.391,0h0a3.1,3.1,0,0,0-.909,2.2Z" transform="translate(-325.19 -444.408)" fill="#fff"/>
</svg>
