<svg xmlns="http://www.w3.org/2000/svg" width="63" height="63" viewBox="0 0 63 63">
  <g id="Grupo_89390" data-name="Grupo 89390" transform="translate(6143 3998)">
    <circle id="Elipse_4705" data-name="Elipse 4705" cx="31.5" cy="31.5" r="31.5" transform="translate(-6143 -3998)" fill="#7b1fa2"/>
    <g id="IBvqyb" transform="translate(-9951.032 -6731.313)">
      <g id="Grupo_89206" data-name="Grupo 89206" transform="translate(3821.132 2743.884)">
        <path id="Trazado_122293" data-name="Trazado 122293" d="M3822.616,2785.74a2.1,2.1,0,0,1-1.484-2.288q.032-15.02.013-30.042a1.847,1.847,0,0,1,1.3-1.942,1.564,1.564,0,0,1,.44-.073c1.185-.008,2.371-.025,3.555.008a.88.88,0,0,1,.6.371.612.612,0,0,1-.082.584,1.017,1.017,0,0,1-.649.242c-.994.025-1.989.01-2.984.011-.812,0-.96.146-.96.941v30.041c0,.75.166.92.9.92h20.273c.718,0,.9-.176.9-.885q0-6.765,0-13.529v-.464h-13.856a1.87,1.87,0,0,1-2.084-2.1q0-10.79,0-21.581a1.863,1.863,0,0,1,2.07-2.072h17.943a1.86,1.86,0,0,1,2.058,2.042q0,2.841,0,5.681c0,.082,0,.164,0,.245a.62.62,0,0,1-.592.612.6.6,0,0,1-.626-.616c-.016-.558-.005-1.117-.005-1.676q0-2.126,0-4.251c0-.607-.2-.811-.805-.812q-9.012,0-18.025,0c-.58,0-.788.208-.789.787q0,10.851,0,21.7c0,.6.2.807.81.807q8.992,0,17.984,0c.629,0,.825-.2.825-.833q0-6.5,0-13c0-.709.177-.883.9-.883q1.615,0,3.229,0c.484,0,.763.219.775.594s-.28.63-.779.631c-.951,0-1.9,0-2.874,0v2.453h.544c.8,0,1.608,0,2.412,0a.616.616,0,1,1,0,1.221c-.978.007-1.957,0-2.958,0v2.453h.374c.845,0,1.689,0,2.534,0,.467,0,.752.247.743.625s-.283.6-.729.6c-.965,0-1.93,0-2.92,0v2.453h2.576c.136,0,.272,0,.408,0a.614.614,0,1,1-.019,1.222c-.831.008-1.662,0-2.493,0h-.5v2.453h2.508a5.169,5.169,0,0,1,.612.008.572.572,0,0,1,.556.6.578.578,0,0,1-.538.613,2.135,2.135,0,0,1-.367.009h-7.65v2.452h7.627a2.706,2.706,0,0,1,.367.006.591.591,0,0,1,.564.593.6.6,0,0,1-.577.622,3.544,3.544,0,0,1-.367,0h-7.613v3.843h10.155c.678,0,.861-.187.861-.88v-26.445c0-.727-.165-.9-.881-.9h-3.147a1.686,1.686,0,0,1-.366-.021.573.573,0,0,1-.5-.643.541.541,0,0,1,.554-.548c1.335-.009,2.671-.034,4,.02a1.766,1.766,0,0,1,1.558,1.685c.009.136.005.272.005.408q0,13.2,0,26.4a1.89,1.89,0,0,1-2.161,2.145H3845.7v3.679h.366q3.066,0,6.131,0c.635,0,.831-.2.834-.825,0-.327-.009-.654,0-.981a.615.615,0,0,1,.6-.644.608.608,0,0,1,.618.625c.014.449.023.9,0,1.348a1.825,1.825,0,0,1-1.858,1.7c-2.071.009-4.142,0-6.213,0h-.515a2.049,2.049,0,0,1-1.46,2.453Z" transform="translate(-3821.132 -2743.884)" fill="#fff"/>
        <path id="Trazado_122294" data-name="Trazado 122294" d="M3885,2779.239h-7.682c-.707,0-.89-.179-.88-.9.012-.9-.013-1.8.073-2.692a3.524,3.524,0,0,1,2.13-2.977c.649-.308,1.355-.5,2-.806a4.5,4.5,0,0,0,1.259-.848c.343-.347.26-.54-.118-.857a4.64,4.64,0,0,1-1.831-3.387,20.138,20.138,0,0,1,.119-4.309,5.089,5.089,0,0,1,10.008.555,23.605,23.605,0,0,1-.012,3.913,4.617,4.617,0,0,1-1.911,3.3c-.235.183-.3.377-.142.576a3.243,3.243,0,0,0,.822.806,9.9,9.9,0,0,0,1.393.568c.3.119.612.228.911.358a3.857,3.857,0,0,1,2.455,3.714c.02.735.008,1.471.005,2.207,0,.57-.214.778-.8.778Q3888.9,2779.24,3885,2779.239Zm-7.277-1.254h14.639c0-.666.031-1.306-.007-1.942a2.612,2.612,0,0,0-1.774-2.417c-.353-.141-.711-.273-1.069-.4-1.17-.413-2.315-.856-2.721-2.133a14.846,14.846,0,0,1-1.789.2,14.43,14.43,0,0,1-1.757-.21,3.17,3.17,0,0,1-2.137,1.931c-.633.247-1.28.461-1.9.736a2.319,2.319,0,0,0-1.472,2C3877.674,2776.485,3877.721,2777.221,3877.721,2777.985Zm11.253-13.041-.05,0c0-.449.016-.9,0-1.348a3.921,3.921,0,0,0-3.439-3.806,3.781,3.781,0,0,0-4.233,3.013,15.626,15.626,0,0,0-.1,3.7,3.879,3.879,0,0,0,7.655.552A15.318,15.318,0,0,0,3888.974,2764.944Z" transform="translate(-3866.611 -2755.94)" fill="#fff"/>
      </g>
    </g>
  </g>
</svg>
