<svg xmlns="http://www.w3.org/2000/svg" width="63" height="63" viewBox="0 0 63 63">
  <g id="Grupo_89391" data-name="Grupo 89391" transform="translate(5855 3998)">
    <circle id="Elipse_4706" data-name="Elipse 4706" cx="31.5" cy="31.5" r="31.5" transform="translate(-5855 -3998)" fill="#7b1fa2"/>
    <g id="Grupo_89207" data-name="Grupo 89207" transform="translate(-6328.318 -6553.294)">
      <path id="Trazado_122295" data-name="Trazado 122295" d="M527.107,2574.294a1.114,1.114,0,0,1,.562,1.122c-.023,1.082-.005,2.164-.008,3.246,0,.729-.283,1.014-1,1.017-.924,0-1.847,0-2.771,0-.21,0-.357.018-.466.25a.765.765,0,0,1-.768.388c-.632,0-1.264,0-1.952,0v1c0,.831.012,1.663-.007,2.494a.674.674,0,0,0,.307.623c1.816,1.36,3.618,2.739,5.435,4.1a1.141,1.141,0,0,1,.5,1.006q-.018,2.355,0,4.711a1,1,0,0,1-.694,1.068c-.479.184-.935.427-1.416.608a.458.458,0,0,0-.334.533c.02.448.013.9,0,1.346a.8.8,0,0,1-.884.888q-3.7.01-7.4,0a.814.814,0,0,1-.893-.887q-.023-.712,0-1.425a.393.393,0,0,0-.283-.445c-.515-.2-1.016-.439-1.527-.649a.894.894,0,0,1-.609-.915q.012-2.475,0-4.949a1.039,1.039,0,0,1,.49-.889c1.8-1.354,3.6-2.722,5.4-4.073a.708.708,0,0,0,.33-.651c-.02-1.146-.008-2.292-.008-3.489-.629,0-1.231-.008-1.833,0a.946.946,0,0,1-.957-.493c-.05-.092-.259-.136-.395-.137-1.623-.009-3.246-.006-4.869-.006-.092,0-.185,0-.277,0-.571-.012-.942-.329-.935-.8s.375-.781.953-.781c1.663,0,3.325,0,4.987,0h.451v-2.186l-23.334.061v2.186h.414q2.474,0,4.948,0c.545,0,.874.237.941.656.085.537-.283.921-.908.925-1.174.007-2.349,0-3.523,0h-1.227c-.356,0-.707-.068-.931.372-.08.158-.429.237-.661.249-.629.033-1.26.012-1.935.012a26.519,26.519,0,0,1-.019,2.67,1.918,1.918,0,0,0,.978,1.968c1.633,1.137,3.186,2.389,4.783,3.581a1.115,1.115,0,0,1,.49.973c-.008,1.782,0,3.563,0,5.345a.923.923,0,0,1-.4.89.77.77,0,0,1-1.151-.492,2.605,2.605,0,0,1-.033-.512c0-1.557-.007-3.115,0-4.672a.651.651,0,0,0-.289-.594q-2.457-1.836-4.894-3.7a.347.347,0,0,0-.508-.009q-2.452,1.875-4.924,3.723a.616.616,0,0,0-.268.564q.014,2.435,0,4.87c0,.6-.3.933-.792.928a.744.744,0,0,1-.739-.593,2.2,2.2,0,0,1-.047-.47c0-1.742.006-3.484-.008-5.226a1.213,1.213,0,0,1,.542-1.068c1.8-1.34,3.578-2.7,5.375-4.046a.708.708,0,0,0,.325-.653c-.018-1.145-.007-2.29-.007-3.479-.636,0-1.238-.007-1.841,0a.928.928,0,0,1-.953-.5c-.044-.086-.237-.133-.361-.134-.95-.011-1.9-.024-2.85,0a1.111,1.111,0,0,1-1.121-.561v-4.832Zm-2.6,20.031a2.712,2.712,0,0,1,.348-.135c.425-.093.522-.356.511-.771-.03-1.134,0-2.269-.02-3.4a.7.7,0,0,0-.227-.486c-1.651-1.27-3.318-2.521-4.975-3.783a.3.3,0,0,0-.442,0c-1.668,1.27-3.344,2.53-5.01,3.8a.516.516,0,0,0-.188.352c-.014,1.28-.011,2.56,0,3.839a.377.377,0,0,0,.136.284,6.115,6.115,0,0,0,.685.3c0-1.292,0-2.53,0-3.768,0-.767.284-1.047,1.055-1.047q3.541,0,7.083,0c.778,0,1.045.268,1.047,1.047C524.5,2591.788,524.5,2593.027,524.5,2594.325ZM487.2,2578.763h4.068v-2.8H487.2Zm30.685-2.866v2.8h4.066v-2.8Zm-32.295.067H482.93v2.163h2.657Zm40.472-.056h-2.485v2.16h2.485Zm-9.127,16.482v3.408l1.711-1.712Zm3.039,2.962-1.722,1.725H521.7Zm-.076-2.523,1.717-1.72h-3.437Zm1.262,1.268,1.74,1.745v-3.494Z" transform="translate(0)" fill="#fff"/>
    </g>
  </g>
</svg>
