<svg xmlns="http://www.w3.org/2000/svg" width="232.356" height="128.941" viewBox="0 0 232.356 128.941">
  <g id="Grupo_89388" data-name="Grupo 89388" transform="translate(3830.356 997.855)">
    <g id="Grupo_78338" data-name="Grupo 78338" transform="translate(-3830.356 -997.855)">
      <path id="Trazado_113510" data-name="Trazado 113510" d="M161.315,71.056c-2.59,0-3.869,2.068-4.9,3.73-1.041,1.682-1.745,2.713-3.072,2.713s-2.03-1.031-3.068-2.713c-1.027-1.662-2.306-3.73-4.9-3.73s-3.869,2.068-4.9,3.73c-1.039,1.682-1.744,2.713-3.069,2.713s-2.029-1.031-3.068-2.713c-1.027-1.662-2.306-3.73-4.9-3.73s-3.868,2.069-4.894,3.731c-1.039,1.681-1.743,2.711-3.067,2.711s-2.027-1.031-3.067-2.711c-1.027-1.663-2.3-3.731-4.894-3.731s-3.867,2.068-4.894,3.731C107.6,76.468,106.9,77.5,105.574,77.5a1.074,1.074,0,1,0,0,2.147c2.588,0,3.867-2.068,4.894-3.73,1.038-1.682,1.743-2.713,3.067-2.713s2.027,1.031,3.067,2.713c1.027,1.662,2.306,3.73,4.894,3.73s3.867-2.068,4.893-3.73c1.039-1.682,1.743-2.713,3.068-2.713s2.029,1.031,3.068,2.713c1.027,1.662,2.306,3.73,4.9,3.73s3.868-2.068,4.9-3.73c1.038-1.682,1.743-2.713,3.069-2.713s2.029,1.031,3.068,2.713c1.026,1.662,2.306,3.73,4.9,3.73s3.87-2.068,4.9-3.73c1.041-1.682,1.745-2.713,3.07-2.713s2.031,1.031,3.072,2.713c1.027,1.662,2.307,3.73,4.9,3.73a1.074,1.074,0,0,0,0-2.147c-1.326,0-2.031-1.031-3.072-2.713C165.185,73.124,163.906,71.056,161.315,71.056Z" transform="translate(-104.499 -52.34)" fill="#7b1fa2"/>
      <path id="Trazado_113511" data-name="Trazado 113511" d="M161.315,78.718c-2.59,0-3.869,2.069-4.9,3.73-1.041,1.683-1.745,2.714-3.072,2.714s-2.03-1.031-3.068-2.713c-1.027-1.662-2.306-3.731-4.9-3.731s-3.869,2.069-4.9,3.731c-1.039,1.682-1.744,2.713-3.069,2.713s-2.029-1.031-3.068-2.713c-1.027-1.662-2.306-3.731-4.9-3.731s-3.868,2.07-4.894,3.731c-1.039,1.682-1.743,2.713-3.067,2.713s-2.027-1.031-3.067-2.713c-1.027-1.662-2.3-3.731-4.894-3.731s-3.867,2.069-4.894,3.731c-1.039,1.682-1.743,2.713-3.067,2.713a1.074,1.074,0,1,0,0,2.147c2.588,0,3.867-2.069,4.894-3.731,1.038-1.681,1.743-2.711,3.067-2.711s2.027,1.031,3.067,2.711c1.027,1.662,2.306,3.731,4.894,3.731s3.867-2.069,4.893-3.731c1.039-1.681,1.743-2.711,3.068-2.711s2.029,1.031,3.068,2.711c1.027,1.662,2.306,3.731,4.9,3.731s3.868-2.069,4.9-3.731c1.038-1.681,1.743-2.711,3.069-2.711s2.029,1.031,3.068,2.711c1.026,1.662,2.306,3.731,4.9,3.731s3.87-2.069,4.9-3.731c1.041-1.681,1.745-2.711,3.07-2.711s2.031,1.031,3.072,2.711c1.027,1.662,2.307,3.731,4.9,3.731a1.074,1.074,0,0,0,0-2.147c-1.326,0-2.031-1.031-3.072-2.713C165.185,80.787,163.906,78.718,161.315,78.718Z" transform="translate(-104.499 -69.361)" fill="#7b1fa2"/>
      <path id="Trazado_113512" data-name="Trazado 113512" d="M161.315,86.38c-2.59,0-3.869,2.068-4.9,3.73-1.041,1.682-1.745,2.713-3.072,2.713s-2.03-1.031-3.068-2.713c-1.027-1.662-2.306-3.73-4.9-3.73s-3.869,2.068-4.9,3.73c-1.039,1.682-1.744,2.713-3.069,2.713s-2.029-1.031-3.068-2.713c-1.027-1.662-2.306-3.73-4.9-3.73s-3.868,2.068-4.894,3.73c-1.039,1.682-1.743,2.713-3.067,2.713s-2.027-1.031-3.067-2.713c-1.027-1.662-2.3-3.73-4.894-3.73s-3.867,2.068-4.894,3.73c-1.039,1.682-1.743,2.713-3.067,2.713a1.074,1.074,0,1,0,0,2.147c2.588,0,3.867-2.069,4.894-3.731,1.038-1.681,1.743-2.711,3.067-2.711s2.027,1.031,3.067,2.711c1.027,1.662,2.306,3.731,4.894,3.731s3.867-2.069,4.893-3.73c1.039-1.682,1.743-2.713,3.068-2.713s2.029,1.031,3.068,2.713c1.027,1.661,2.306,3.73,4.9,3.73s3.868-2.069,4.9-3.73c1.038-1.682,1.743-2.713,3.069-2.713s2.029,1.031,3.068,2.713c1.026,1.661,2.306,3.73,4.9,3.73s3.87-2.069,4.9-3.73c1.041-1.682,1.745-2.713,3.07-2.713s2.031,1.031,3.072,2.713c1.027,1.661,2.307,3.73,4.9,3.73a1.074,1.074,0,0,0,0-2.147c-1.326,0-2.031-1.031-3.072-2.713C165.185,88.448,163.906,86.38,161.315,86.38Z" transform="translate(-104.499 -86.38)" fill="#7b1fa2"/>
    </g>
    <g id="Grupo_89385" data-name="Grupo 89385" transform="translate(-4879 -10139.914)">
      <circle id="Elipse_4782" data-name="Elipse 4782" cx="58.5" cy="58.5" r="58.5" transform="translate(1164 9154)" fill="#fff"/>
      <g id="Grupo_64109" data-name="Grupo 64109" transform="translate(284.946 8784.585)">
        <path id="Trazado_133124" data-name="Trazado 133124" d="M903.054,442.844a3.33,3.33,0,0,1,2.657-2.526,1.7,1.7,0,0,0,1.521-1.245,13.032,13.032,0,0,1,6.574-6.495,1.715,1.715,0,0,0,.953-1c.575-1.413,1.206-2.8,1.787-4.215a.7.7,0,0,1,.766-.514,6.411,6.411,0,0,1,6.076,3.76,1.076,1.076,0,0,0,1.15.715q2.986-.067,5.974-.007c1.244.023,2.491.143,3.779.223.158-.787.294-1.647.508-2.491a18.786,18.786,0,0,1,3.161-6.588q3.44-4.669,6.861-9.352c.148-.2.283-.412.434-.631-2.06-.476-3.127-1.5-3.278-3.1s.73-2.849,2.664-3.635c-.764-.459-1.459-.9-2.179-1.3a.853.853,0,0,1-.509-.864,6.376,6.376,0,0,1,4.931-6.264c.2-.049.4-.092.655-.151-.271-.676.166-1.032.6-1.387.036-.029.072-.058.108-.088,3.409-2.93,6.491-2.884,9.833.131.4.363.8.705.568,1.311.614.2,1.2.331,1.75.565a6.294,6.294,0,0,1,3.793,6.023.933.933,0,0,1-.37.636c-.721.483-1.479.918-2.281,1.4,1.919.767,2.81,2.024,2.654,3.638a3.491,3.491,0,0,1-3.295,3.061c.157.228.288.424.429.616,2.327,3.174,4.674,6.333,6.979,9.523a18.831,18.831,0,0,1-23.353,28.049c-.187-.087-.375-.172-.6-.274-.082.147-.169.278-.233.419a13.588,13.588,0,0,1-6.086,6.533.857.857,0,0,0-.524.917,6.623,6.623,0,0,1-.106,1.654,3.257,3.257,0,0,1-3.146,2.554c-.7.02-1.39.008-2.085,0a3.353,3.353,0,0,1-3.54-3.03c-.014-.086-.03-.172-.05-.279h-6.54a8.945,8.945,0,0,1-.417,1.372,3.212,3.212,0,0,1-2.909,1.927c-.809.037-1.622.029-2.432,0a3.211,3.211,0,0,1-3.193-3.229v-.037a2.193,2.193,0,0,0-1.4-2.38,12.859,12.859,0,0,1-4.616-4.03.724.724,0,0,0-.475-.309,3.556,3.556,0,0,1-3.544-2.661Zm50.021-30.44c-1.46,0-2.919.02-4.378-.012a1.039,1.039,0,0,0-.969.5q-3.985,5.475-8,10.926a16.906,16.906,0,0,0-3.128,7.553c-.1.617-.055,1.007.647,1.326a13.588,13.588,0,0,1,7.829,14.935.627.627,0,0,0,.4.79l.014,0a16.745,16.745,0,0,0,10.192,1.61,16.469,16.469,0,0,0,11.069-25.785c-2.724-3.857-5.567-7.631-8.376-11.429a1.136,1.136,0,0,0-.787-.393c-1.506-.042-3.014-.023-4.518-.023Zm-14.491,32.183a4.1,4.1,0,0,0,3.65-1.657,1.451,1.451,0,0,0,.237-1.527,11.9,11.9,0,0,0-10.786-7.848c-2.337-.061-4.678-.014-7.016-.026a5.009,5.009,0,0,1-2.235-.131c-.524-.3-.7-1.2-1.035-1.835a6.374,6.374,0,0,0-.349-.6,4.312,4.312,0,0,0-2.3-1.7.5.5,0,0,0-.688.189.494.494,0,0,0-.057.151c-.511,1.264-1.088,2.5-1.6,3.768a1.476,1.476,0,0,1-.928.918,11.159,11.159,0,0,0-6.656,6.661c-.569,1.463-.571,1.462-2.146,1.479-1.027.01-1.4.393-1.4,1.442v3.959c0,2.35,0,2.36,2.347,2.369a.9.9,0,0,1,.811.471,12.1,12.1,0,0,0,2.062,2.491,42.8,42.8,0,0,0,4.3,2.754.777.777,0,0,1,.494.786c-.034.763-.022,1.529,0,2.292A1.114,1.114,0,0,0,916.3,460.2a1.125,1.125,0,0,0,.208,0c.648.017,1.3.013,1.946,0a1.141,1.141,0,0,0,1.283-.978,1.175,1.175,0,0,0,0-.308c.012-.663,0-1.328,0-2h11.11v1.913c.009.987.393,1.367,1.4,1.375.58,0,1.157.008,1.737,0,.9-.014,1.294-.418,1.311-1.335.008-.717.032-1.442-.009-2.152a.724.724,0,0,1,.539-.817,11.58,11.58,0,0,0,7.243-10.633,7.183,7.183,0,0,1-5.081,1.613c-.168-.007-.37.207-.515.358-1.555,1.612-3.1,3.233-4.624,4.823l-1.665-1.589,3.6-3.532c-2.477-1.255-3.287-2.672-2.633-4.524a3.362,3.362,0,0,1,3.759-2.169C937.828,440.657,938.754,442.137,938.584,444.586Zm15.841-38.88c.611-2.738,1.211-5.418,1.8-8.1a.645.645,0,0,0-.092-.493,3.986,3.986,0,0,0-4.876-.823c-1.416.767-1.422.768-1.082,2.32.525,2.36,1.049,4.72,1.581,7.1Zm-1.293,4.474h7.435c.887,0,1.395-.393,1.412-1.084.018-.712-.507-1.137-1.427-1.137H945.4a1.129,1.129,0,0,0-1.2,1.051c0,.011,0,.022,0,.033a1.11,1.11,0,0,0,1.081,1.139.958.958,0,0,0,.138-.005c2.579.009,5.15,0,7.724,0Zm-3.634-4.366-1.432-6.415a4.127,4.127,0,0,0-3.713,2.934.626.626,0,0,0,.293.835l.025.011c1.322.756,2.614,1.564,3.933,2.334a5.113,5.113,0,0,0,.9.3Zm8.62-6.449-1.442,6.48a6.67,6.67,0,0,0,.945-.354c1.276-.746,2.524-1.538,3.814-2.258a.691.691,0,0,0,.347-1.011A4.182,4.182,0,0,0,958.118,399.366ZM936.211,444.63c.329-1.006.249-1.621-.262-1.98a1.023,1.023,0,0,0-1.336.035,1,1,0,0,0-.313,1.3c.418.87,1.2.657,1.912.65Z" transform="translate(0 -0.049)" fill="#7b1fa2"/>
        <path id="Trazado_133125" data-name="Trazado 133125" d="M903.054,403.315c1.769-2.869,3.485-5.769,5.326-8.593a2.96,2.96,0,0,1,4.911,0q2.6,3.894,4.982,7.93a2.794,2.794,0,0,1-2.36,4.138c-.182.012-.364.016-.616.027V420.1h-8.868V406.814a3.128,3.128,0,0,1-3.375-2.242Zm10,1.251c.9,0,1.7.012,2.515,0s1.034-.448.61-1.132q-2.238-3.59-4.5-7.165c-.5-.787-1.186-.772-1.685.016q-2.244,3.546-4.458,7.109c-.471.754-.231,1.167.665,1.18.8.008,1.6,0,2.44,0v13.3h4.421Z" fill="#7b1fa2"/>
        <path id="Trazado_133126" data-name="Trazado 133126" d="M947.323,432.125h-8.915V418.884a10.758,10.758,0,0,1-1.221-.177,2.753,2.753,0,0,1-1.779-4.01q2.405-4.057,5.018-7.989a2.966,2.966,0,0,1,4.873.025q2.6,3.895,4.982,7.93a2.794,2.794,0,0,1-2.338,4.149c-.182.012-.367,0-.62,0Zm-2.229-2.229V416.589c.855,0,1.639.008,2.423,0,.856-.011,1.108-.429.665-1.14q-2.238-3.591-4.5-7.166c-.493-.776-1.18-.759-1.685.031q-2.242,3.546-4.458,7.109c-.468.75-.224,1.16.679,1.168.8.007,1.6,0,2.437,0V429.9Z" transform="translate(-14.225 -5.345)" fill="#7b1fa2"/>
        <path id="Trazado_133136" data-name="Trazado 133136" d="M987.545,441.835v-2.266h2.181V441.8c2.979,1.075,4.5,2.925,4.433,5.409-.345.028-.7.067-1.06.082s-.689,0-1.075,0c-.044-.25-.076-.493-.131-.732a3.322,3.322,0,1,0-4.113,3.834c.779.216,1.574.383,2.35.606a5.47,5.47,0,0,1,.117,10.541c-.152.047-.3.1-.495.165v2.249h-2.206V461.7a5.737,5.737,0,0,1-3.7-2.622,6.276,6.276,0,0,1-.733-3.924h2.193c0,.419-.012.829,0,1.239a3.267,3.267,0,0,0,3.025,3.154,3.308,3.308,0,0,0,3.607-2.753,3.254,3.254,0,0,0-2.41-3.642c-.667-.189-1.34-.357-2.012-.525a5.482,5.482,0,0,1-.262-10.706Z" transform="translate(-35.55 -20.51)" fill="#7b1fa2"/>
        <path id="Trazado_133137" data-name="Trazado 133137" d="M922.443,471.535a3.334,3.334,0,1,1-3.375,3.292v-.036A3.347,3.347,0,0,1,922.443,471.535Zm-.05,4.44a1.107,1.107,0,1,0-1.1-1.115,1.121,1.121,0,0,0,1.1,1.113Z" transform="translate(-7.116 -34.715)" fill="#7b1fa2"/>
      </g>
    </g>
  </g>
</svg>
