<svg xmlns="http://www.w3.org/2000/svg" width="63" height="63" viewBox="0 0 63 63">
  <g id="Grupo_89307" data-name="Grupo 89307" transform="translate(-967 10442)">
    <circle id="Elipse_4752" data-name="Elipse 4752" cx="31.5" cy="31.5" r="31.5" transform="translate(967 -10442)" fill="#7b1fa2"/>
    <g id="QLK311" transform="translate(-219.616 -12938.034)">
      <g id="Grupo_89227" data-name="Grupo 89227" transform="translate(1200.616 2510.034)">
        <path id="Trazado_122342" data-name="Trazado 122342" d="M1224.669,2510.034a7.512,7.512,0,0,1,.822.265,3.321,3.321,0,0,1,2.134,3.149c.035,2,.01,4,.01,6v.387a8.009,8.009,0,0,1,5.736,3.041,7.9,7.9,0,0,1,1.73,4.55,8.114,8.114,0,0,1-6.317,8.332c0,.657,0,1.319.005,1.98a.514.514,0,0,0,.117.267,2.35,2.35,0,0,1,.46,1.417c.006.932.016,1.864,0,2.8a2.295,2.295,0,0,1-4.519.594,4.006,4.006,0,0,1-.082-.8c-.013-.311,0-.623,0-.915h-9.591l-10.71,0a3.488,3.488,0,0,1-3.8-2.936.592.592,0,0,0-.04-.09V2513c.024-.071.054-.141.07-.214a3.363,3.363,0,0,1,1.719-2.312,8.724,8.724,0,0,1,1.175-.44Zm-22.9,8.071v.322q0,9.5,0,19a2.319,2.319,0,0,0,2.49,2.512q9.213,0,18.426,0c.583,0,1.167-.021,1.75-.026.258,0,.344-.113.331-.372a2.32,2.32,0,0,1,.479-1.577.437.437,0,0,0,.092-.241c.007-.662,0-1.323,0-1.98a8.087,8.087,0,0,1-6.323-8.163,7.854,7.854,0,0,1,1.619-4.557,8.025,8.025,0,0,1,5.839-3.2V2518.1Zm25.263,16.657a6.9,6.9,0,1,0-6.867-6.935A6.921,6.921,0,0,0,1227.027,2534.762Zm-.579-17.842a.463.463,0,0,0,.033-.1c0-1.1.013-2.2,0-3.3a2.289,2.289,0,0,0-2.356-2.336q-9.988-.007-19.976,0a2.293,2.293,0,0,0-2.387,2.374c-.007,1.022,0,2.044,0,3.066,0,.1.013.191.021.294Zm-.538,23.871c0,.46-.009.921,0,1.381a1.152,1.152,0,1,0,2.3,0q.018-1.365,0-2.729a1.153,1.153,0,1,0-2.3,0C1225.9,2539.893,1225.91,2540.342,1225.91,2540.791Zm.6-4.88v1.176h1.1v-1.176Z" transform="translate(-1200.616 -2510.034)" fill="#fff"/>
        <path id="Trazado_122343" data-name="Trazado 122343" d="M1220.938,2574.09a4.041,4.041,0,1,1,5.153-.009c.153.076.3.143.446.223a3.874,3.874,0,0,1,2.138,3.426c.043,1.391.021,2.784.008,4.176a1.687,1.687,0,0,1-1.72,1.7q-3.435.014-6.869,0a1.687,1.687,0,0,1-1.738-1.717c-.014-1.37-.032-2.74,0-4.109a3.9,3.9,0,0,1,2.274-3.546C1220.732,2574.187,1220.833,2574.141,1220.938,2574.09Zm4.306,8.357V2581.2c0-1.089,0-2.177,0-3.266a.578.578,0,1,1,1.146.007c0,.1,0,.2,0,.3,0,1.178,0,2.357,0,3.535,0,.417.238.684.583.679a.584.584,0,0,0,.561-.661c0-1.336.014-2.672,0-4.007a2.756,2.756,0,0,0-2.363-2.736,21.256,21.256,0,0,0-2.72-.067,2.853,2.853,0,0,0-2.946,2.924c-.009.92,0,1.841,0,2.761,0,.4-.005.808.007,1.212a.563.563,0,0,0,.544.573.587.587,0,0,0,.591-.533,2.053,2.053,0,0,0,.006-.269c0-1.246,0-2.492,0-3.738a.573.573,0,1,1,1.142-.028c.008,1.513,0,3.026,0,4.556Zm-1.678-14.353a2.871,2.871,0,1,0,2.824,2.936A2.855,2.855,0,0,0,1223.565,2568.094Z" transform="translate(-1215.472 -2557.735)" fill="#fff"/>
        <path id="Trazado_122344" data-name="Trazado 122344" d="M1227.875,2678.194h-8.722c-.431,0-.66-.15-.714-.46-.07-.4.2-.685.659-.686q2.206-.007,4.411,0h12.965c.078,0,.157,0,.236,0,.429.008.676.222.673.582s-.246.565-.685.565Q1232.286,2678.2,1227.875,2678.194Z" transform="translate(-1215.545 -2650.02)" fill="#fff"/>
        <path id="Trazado_122345" data-name="Trazado 122345" d="M1292.619,2664.012c-.82,0-1.639,0-2.459,0-.45,0-.719-.219-.72-.575s.27-.573.721-.573q2.458,0,4.917,0c.43,0,.678.214.68.573s-.25.572-.68.573c-.82,0-1.639,0-2.459,0Z" transform="translate(-1275.068 -2638.133)" fill="#fff"/>
        <path id="Trazado_122346" data-name="Trazado 122346" d="M1291.763,2648.649c.538,0,1.076,0,1.614,0,.4,0,.653.223.659.56s-.253.586-.671.588q-1.63.007-3.26,0a.594.594,0,0,1-.663-.566c-.008-.345.258-.577.675-.58.549,0,1.1,0,1.647,0Z" transform="translate(-1275.068 -2626.22)" fill="#fff"/>
        <path id="Trazado_122347" data-name="Trazado 122347" d="M1329.477,2611.3c-.293-.259-.536-.456-.757-.675a.564.564,0,0,1-.064-.86.572.572,0,0,1,.862.04q.531.513,1.046,1.043a.583.583,0,0,1,0,.914q-.525.543-1.069,1.069a.58.58,0,0,1-.84.044.565.565,0,0,1,.036-.86C1328.919,2611.786,1329.168,2611.578,1329.477,2611.3Z" transform="translate(-1307.785 -2593.479)" fill="#fff"/>
        <path id="Trazado_122348" data-name="Trazado 122348" d="M1355.152,2642.843c-.262.285-.465.525-.688.745a.575.575,0,1,1-.814-.8c.351-.363.707-.722,1.071-1.071a.568.568,0,0,1,.867-.007q.56.535,1.094,1.1a.573.573,0,1,1-.824.792C1355.633,2643.375,1355.427,2643.137,1355.152,2642.843Z" transform="translate(-1328.711 -2620.235)" fill="#fff"/>
        <path id="Trazado_122349" data-name="Trazado 122349" d="M1355.167,2585.687c.259-.292.458-.536.677-.758a.569.569,0,0,1,.863-.06.58.58,0,0,1-.048.865q-.516.532-1.049,1.048a.585.585,0,0,1-.916-.016q-.518-.506-1.023-1.025a.577.577,0,0,1-.06-.864.564.564,0,0,1,.862.047C1354.7,2585.144,1354.9,2585.387,1355.167,2585.687Z" transform="translate(-1328.716 -2572.616)" fill="#fff"/>
        <path id="Trazado_122350" data-name="Trazado 122350" d="M1386.67,2611.319c.29.253.535.448.757.667a.565.565,0,0,1,.064.861.575.575,0,0,1-.863-.043q-.531-.516-1.047-1.048a.58.58,0,0,1,.013-.915q.5-.519,1.022-1.024a.579.579,0,1,1,.8.822C1387.2,2610.853,1386.97,2611.048,1386.67,2611.319Z" transform="translate(-1355.472 -2593.48)" fill="#fff"/>
        <path id="Trazado_122351" data-name="Trazado 122351" d="M1301.131,2527.662q-1.379,0-2.758,0a1.726,1.726,0,1,1-.015-3.447q2.792-.008,5.584,0a1.725,1.725,0,1,1,.015,3.447c-.942.009-1.884,0-2.826,0Zm-.013-1.153v0c.92,0,1.841,0,2.761,0,.449,0,.72-.226.711-.58s-.276-.566-.7-.567q-2.744,0-5.489,0c-.449,0-.711.227-.7.589s.256.555.693.556C1299.3,2526.51,1300.209,2526.509,1301.118,2526.509Z" transform="translate(-1281.019 -2521.917)" fill="#fff"/>
        <path id="Trazado_122352" data-name="Trazado 122352" d="M1244.964,2527.675a1.723,1.723,0,1,1,1.72-1.707A1.725,1.725,0,0,1,1244.964,2527.675Zm-.012-1.152a.557.557,0,0,0,.575-.567.568.568,0,0,0-1.136-.014A.561.561,0,0,0,1244.952,2526.523Z" transform="translate(-1236.336 -2521.932)" fill="#fff"/>
        <path id="Trazado_122353" data-name="Trazado 122353" d="M1216.543,2527.683a1.724,1.724,0,1,1,1.716-1.7A1.7,1.7,0,0,1,1216.543,2527.683Zm.563-1.725a.575.575,0,0,0-.58-.571.594.594,0,0,0-.562.563.573.573,0,0,0,.571.578A.554.554,0,0,0,1217.107,2525.958Z" transform="translate(-1212.517 -2521.938)" fill="#fff"/>
      </g>
    </g>
  </g>
</svg>
