<svg xmlns="http://www.w3.org/2000/svg" width="63" height="63" viewBox="0 0 63 63">
  <g id="Grupo_89216" data-name="Grupo 89216" transform="translate(-651 -1275)">
    <path id="Trazado_113533" data-name="Trazado 113533" d="M31.5,0A31.5,31.5,0,1,1,0,31.5,31.5,31.5,0,0,1,31.5,0Z" transform="translate(651 1275)" fill="#7b1fa2"/>
    <g id="Grupo_89214" data-name="Grupo 89214" transform="translate(606.115 -707.544)">
      <path id="Trazado_122310" data-name="Trazado 122310" d="M81.128,2025.937q-.974.979-1.948,1.957a1.665,1.665,0,0,1-2.6,0c-1.069-1.086-2.133-2.177-3.177-3.287-.27-.287-.416-.281-.682,0-1.042,1.112-2.127,2.183-3.162,3.3a5.686,5.686,0,0,1-3.246,1.843c-.2.036-.4.095-.606.143-.494.117-1.128.089-1.441.392s.193.837.209,1.3a3.476,3.476,0,0,1-.737,2.388c-.322.4-.649.477-1.035.078q-4.792-4.954-9.59-9.9a.585.585,0,0,1,.044-.951,3.027,3.027,0,0,1,3.407-.511c.424.217.6.141.871-.212,2.408-3.184,4.841-6.35,7.255-9.529a5.907,5.907,0,0,1,4.26-2.414c1.537-.164,3.066-.4,4.6-.587a1.478,1.478,0,0,0,.95-.477c1.578-1.653,3.178-3.286,4.769-4.927.262-.27.548-.607.928-.265.417.376.094.689-.192.984q-5.18,5.349-10.356,10.7a2.384,2.384,0,0,0-.045,3.228c.8.828.805.838,1.622-.028a2.787,2.787,0,0,1,1.873-1.065c.308-.017.394-.181.4-.443a1.911,1.911,0,0,0-.452-1.346.649.649,0,0,1,.043-1.021c.83-.835,1.644-1.686,2.461-2.534.183-.19.368-.36.658-.277s.347.32.4.582a7.026,7.026,0,0,0,5.7,5.869c.65.145.758.539.287,1.039-.807.857-1.641,1.689-2.449,2.546-.359.38-.656.371-1.063.039a1.66,1.66,0,0,0-2.276-.031.712.712,0,0,1-1.206-.127c-.242-.319-.406-.366-.724-.025-1.08,1.158-1.1,1.141.024,2.293.725.745,1.444,1.495,2.169,2.239.757.777.859.777,1.6.014l17.588-18.165c.835-.863,1.674-1.722,2.506-2.588.566-.589.575-.833.032-1.4q-4.257-4.412-8.522-8.815c-.5-.52-.746-.513-1.264.012-.389.394-.773.794-1.155,1.2-.26.272-.547.37-.836.073-.27-.277-.146-.545.087-.787.449-.465.883-.945,1.349-1.393a1.617,1.617,0,0,1,2.4.028q4.448,4.563,8.865,9.158a1.741,1.741,0,0,1-.153,2.587q-2.839,2.94-5.687,5.872c-.142.147-.268.311-.4.466-1.57,1.464-3,3.061-4.484,4.614l-.6.628a6.123,6.123,0,0,0-1.46,1.65l-.015.014c-.1-.082-.16-.013-.222.052ZM72.747,2011.1c-1.372.182-2.744.358-4.115.549a4.265,4.265,0,0,0-2.871,1.646c-2.582,3.343-5.133,6.708-7.705,10.059-.191.25-.2.392.033.627q2.5,2.548,4.959,5.129a.651.651,0,0,0,.732.183c.916-.233,1.839-.44,2.76-.656a3.927,3.927,0,0,0,1.951-1.124q2.821-2.91,5.634-5.827a1.469,1.469,0,0,0,.075-2.157,1.363,1.363,0,0,0-2.062.214c-.953.973-1.9,1.958-2.846,2.934a.919.919,0,0,1-1.13.246.966.966,0,0,1-.586-1c0-.092.009-.185.018-.276q.27-2.687.541-5.374a2.017,2.017,0,0,1,1.028-1.64C70.679,2013.788,71.554,2012.3,72.747,2011.1Zm2.962,3.051c-.42.416-.817.858-1.266,1.241a.664.664,0,0,0-.169.991A2.583,2.583,0,0,1,74.5,2018c-.023.2-.083.389.139.55a2.514,2.514,0,0,1,1.031,2.217.684.684,0,0,0,1.029.6,2.006,2.006,0,0,1,1.8-.184c1.1.665,1.591-.058,2.18-.7a2.446,2.446,0,0,1,.291-.3c.4-.313.264-.429-.146-.58a7.959,7.959,0,0,1-4.848-4.881C75.9,2014.53,75.913,2014.3,75.709,2014.147ZM63.426,2032.01a2.04,2.04,0,0,0-.541-1.582q-3.092-3.222-6.214-6.417a1.981,1.981,0,0,0-1.987-.5c-.405.1-.567.22-.18.609.565.567,1.078,1.2,1.645,1.753,2.195,2.141,4.268,4.4,6.432,6.568.17.171.329.533.55.442.272-.112.263-.5.294-.794A.356.356,0,0,0,63.426,2032.01Zm5.416-12a6.668,6.668,0,0,0-.155,1.753C69.765,2020.75,69.765,2020.75,68.842,2020.01Z" transform="translate(0)" fill="#fff"/>
      <path id="Trazado_122312" data-name="Trazado 122312" d="M136.846,2041.92a6.426,6.426,0,1,1,6.281-6.376A6.309,6.309,0,0,1,136.846,2041.92Zm5.242-6.419a5.207,5.207,0,1,0-5.181,5.4A5.295,5.295,0,0,0,142.087,2035.5Z" transform="translate(-53.385 -23.703)" fill="#fff"/>
      <path id="Trazado_122313" data-name="Trazado 122313" d="M163.107,2016.265c0,.2-.141.331-.246.481a1.906,1.906,0,0,0,0,2.488.688.688,0,0,1-.077,1.07c-.976.983-1.932,1.987-2.9,2.983-.195.2-.387.421-.711.315s-.34-.392-.4-.667a7.048,7.048,0,0,0-5.63-5.783c-.709-.166-.826-.529-.329-1.052.97-1.021,1.961-2.024,2.932-3.044a.653.653,0,0,1,1.013-.107,1.719,1.719,0,0,0,2.44.005.614.614,0,0,1,.958.045c.894.935,1.8,1.861,2.7,2.789A.7.7,0,0,1,163.107,2016.265Zm-3.5,5.611c.623-.576,1.232-1.16,1.865-1.716a.63.63,0,0,0,.182-.923,1.955,1.955,0,0,1-.184-1.8c.608-1.131-.027-1.739-.763-2.382a8.252,8.252,0,0,1-.768-.794.436.436,0,0,0-.64-.109,2.711,2.711,0,0,1-2.647-.006c-.2-.106-.344-.175-.537.031-.655.7-1.33,1.379-2.044,2.115A8.236,8.236,0,0,1,159.6,2021.875Z" transform="translate(-68.387 -12.496)" fill="#fff"/>
      <path id="Trazado_122314" data-name="Trazado 122314" d="M149.392,2010.938a1.223,1.223,0,0,1-.17.309c-.474.5-.957,1-1.443,1.489a.48.48,0,0,1-.735.046.485.485,0,0,1-.025-.739c.486-.523.989-1.031,1.494-1.536a.466.466,0,0,1,.627-.088A.541.541,0,0,1,149.392,2010.938Z" transform="translate(-64.509 -10.84)" fill="#fff"/>
      <path id="Trazado_122315" data-name="Trazado 122315" d="M143.488,2097.736c.3-.08.6-.115.776.218s-.05.552-.257.773c-.373.4-.74.8-1.11,1.2-.292.206-.6.414-.9.046s-.034-.63.216-.888C142.642,2098.636,143.063,2098.184,143.488,2097.736Z" transform="translate(-61.08 -70.798)" fill="#fff"/>
      <path id="Trazado_122316" data-name="Trazado 122316" d="M130.187,2019.77a.507.507,0,0,1-.429-.813,10.9,10.9,0,0,1,1.151-1.182.43.43,0,0,1,.573.018.447.447,0,0,1,.144.614,6.554,6.554,0,0,1-1.228,1.289A.547.547,0,0,1,130.187,2019.77Z" transform="translate(-52.693 -15.877)" fill="#fff"/>
      <path id="Trazado_122317" data-name="Trazado 122317" d="M141.1,2009.189a2.44,2.44,0,0,1-1.2,1.219.487.487,0,0,1-.456-.25.473.473,0,0,1,.037-.576,11.575,11.575,0,0,1,.811-.831.44.44,0,0,1,.57-.024A.5.5,0,0,1,141.1,2009.189Z" transform="translate(-59.361 -9.672)" fill="#fff"/>
      <path id="Trazado_122318" data-name="Trazado 122318" d="M121.386,2029.5a.481.481,0,0,1-.451-.72,4.227,4.227,0,0,1,.9-.945.485.485,0,0,1,.764.381C122.629,2028.564,121.748,2029.5,121.386,2029.5Z" transform="translate(-46.661 -22.786)" fill="#fff"/>
      <path id="Trazado_122319" data-name="Trazado 122319" d="M155.836,2085.977a.349.349,0,0,1-.43-.221.465.465,0,0,1,.08-.511c.512-.5,1.014-1.016,1.517-1.529.218-.223.405-.044.612.023.326.107.173.449.131.51a4.8,4.8,0,0,1-1.681,1.723C156.008,2086,155.927,2085.977,155.836,2085.977Z" transform="translate(-70.347 -61.137)" fill="#fff"/>
      <path id="Trazado_122320" data-name="Trazado 122320" d="M142.374,2043.337a2.019,2.019,0,0,1-1.979-2.657c.095-.318.3-.61-.05-.93a.406.406,0,0,1,.07-.565c.18-.186.424-.272.616-.09.275.26.505.173.8.063a1.9,1.9,0,0,1,1.894.3c.28.211.479.483.244.823s-.519.256-.837.047a1.059,1.059,0,0,0-1.6.328,1.034,1.034,0,0,0,.116,1.391.947.947,0,0,0,1.376-.034,2.322,2.322,0,0,1,1.867-.724,2.014,2.014,0,0,1,1.674,2.655c-.095.322-.283.616.056.936a.4.4,0,0,1-.076.563c-.18.177-.417.272-.616.085-.267-.252-.489-.177-.792-.069a1.922,1.922,0,0,1-2-.373.517.517,0,0,1-.107-.789c.213-.252.463-.209.74-.042.7.419,1.23.335,1.625-.219a1.116,1.116,0,0,0-.069-1.456.971.971,0,0,0-1.379.03A2.355,2.355,0,0,1,142.374,2043.337Z" transform="translate(-59.976 -30.512)" fill="#fff"/>
    </g>
  </g>
</svg>
