<svg xmlns="http://www.w3.org/2000/svg" width="63" height="63" viewBox="0 0 63 63">
  <g id="Grupo_89217" data-name="Grupo 89217" transform="translate(-928 -1227)">
    <circle id="Elipse_4713" data-name="Elipse 4713" cx="31.5" cy="31.5" r="31.5" transform="translate(928 1227)" fill="#7b1fa2"/>
    <g id="Grupo_64110" data-name="Grupo 64110" transform="translate(-112.094 843.805)">
      <path id="Trazado_133150" data-name="Trazado 133150" d="M1071.593,431.2h-17.139c-.661,0-.852-.194-.852-.854V402.267c0-.661.192-.852.853-.852h34.277c.661,0,.854.194.854.853v28.075c0,.661-.194.853-.854.853Zm16.724-11.186V402.686h-33.455V420.01Zm.009,1.286h-33.452v1.193h33.452Zm0,2.481h-33.453v1.2h33.452Zm-33.45,2.463v1.2h33.437v-1.206Zm0,2.482v1.208h33.438v-1.208Z" fill="#fff"/>
      <path id="Trazado_133151" data-name="Trazado 133151" d="M1078.521,425.724h-12.133c-.683,0-.818-.124-.9-.816a1.882,1.882,0,0,0-1.725-1.661c-.574-.054-.747-.237-.748-.807v-8.334c0-.551.183-.748.721-.793a1.869,1.869,0,0,0,1.756-1.751c.045-.542.24-.726.787-.726h24.5c.539,0,.731.187.777.736a1.87,1.87,0,0,0,1.764,1.743c.517.043.714.243.715.762q0,4.206,0,8.412c0,.517-.2.712-.718.758a1.879,1.879,0,0,0-1.757,1.712c-.062.615-.229.768-.868.768h-12.172Zm-6.2-7.455a5.589,5.589,0,1,0,0-.007v.007Zm10.365,6.2h7.678a3.19,3.19,0,0,1,2.417-2.416v-7.546a3.191,3.191,0,0,1-2.417-2.406h-7.625a7.516,7.516,0,0,1-.054,12.367Zm-18.42-9.961v7.523a3.256,3.256,0,0,1,2.425,2.422h7.654a7.489,7.489,0,0,1,.014-12.363h-7.676a3.194,3.194,0,0,1-2.417,2.416Z" transform="translate(-6.932 -6.936)" fill="#fff"/>
      <path id="Trazado_133154" data-name="Trazado 133154" d="M1114.3,427.75a2.523,2.523,0,0,1-1.83-2.013,1.676,1.676,0,0,1-.029-.423.616.616,0,0,1,1.225-.059,1.924,1.924,0,0,1,.013.193,1.24,1.24,0,1,0,1.271-1.343,2.472,2.472,0,0,1-1.007-4.745.466.466,0,0,0,.361-.525c-.027-.639.182-.929.6-.934s.643.292.621.92a.462.462,0,0,0,.346.536,2.432,2.432,0,0,1,1.519,2.232c-.01.305-.144.566-.439.6a1,1,0,0,1-.647-.2c-.113-.083-.132-.32-.157-.494a1.27,1.27,0,0,0-1.163-1.112,1.24,1.24,0,1,0-.134,2.476l.087,0a2.488,2.488,0,0,1,2.368,1.833,2.453,2.453,0,0,1-1.477,2.938c-.234.093-.33.2-.3.444a1.507,1.507,0,0,1-.011.462.586.586,0,0,1-.625.52.574.574,0,0,1-.594-.551A6.659,6.659,0,0,1,1114.3,427.75Z" transform="translate(-43.321 -12.138)" fill="#fff"/>
    </g>
  </g>
</svg>
